<?xml version="1.0" encoding="UTF-8" standalone="no"?>
<!DOCTYPE svg PUBLIC "-//W3C//DTD SVG 1.1//EN"
 "http://www.w3.org/Graphics/SVG/1.1/DTD/svg11.dtd">
<!-- Generated by graphviz version 6.0.2 (20221011.1828)
 -->
<!-- Title: G Pages: 1 -->
<svg width="14322pt" height="865pt"
 viewBox="0.00 0.00 14322.00 865.00" xmlns="http://www.w3.org/2000/svg" xmlns:xlink="http://www.w3.org/1999/xlink">
<g id="graph0" class="graph" transform="scale(1 1) rotate(0) translate(4 861)">
<title>G</title>
<polygon fill="#1a1b26" stroke="none" points="-4,4 -4,-861 14318,-861 14318,4 -4,4"/>
<g id="clust1" class="cluster">
<title>cluster_2</title>
<polygon fill="#545e87" stroke="black" points="2355,-16 2355,-430 5558,-430 5558,-16 2355,-16"/>
</g>
<g id="clust2" class="cluster">
<title>cluster_5</title>
<polygon fill="#1a1b26" stroke="black" points="2653,-204 2653,-343 3289,-343 3289,-204 2653,-204"/>
</g>
<g id="clust3" class="cluster">
<title>cluster_7</title>
<polygon fill="#1a1b26" stroke="black" points="4431,-24 4431,-256 5550,-256 5550,-24 4431,-24"/>
</g>
<g id="clust4" class="cluster">
<title>cluster_9</title>
<polygon fill="#1a1b26" stroke="black" points="3297,-24 3297,-256 4423,-256 4423,-24 3297,-24"/>
</g>
<g id="clust5" class="cluster">
<title>cluster_4</title>
<polygon fill="#545e87" stroke="black" points="387,-196 387,-430 2347,-430 2347,-196 387,-196"/>
</g>
<g id="clust6" class="cluster">
<title>cluster_7</title>
<polygon fill="#1a1b26" stroke="black" points="717,-204 717,-343 2339,-343 2339,-204 717,-204"/>
</g>
<g id="clust7" class="cluster">
<title>cluster_6</title>
<polygon fill="#545e87" stroke="black" points="5566,-8 5566,-517 12628,-517 12628,-8 5566,-8"/>
</g>
<g id="clust8" class="cluster">
<title>cluster_9</title>
<polygon fill="#1a1b26" stroke="black" points="6047,-16 6047,-430 12620,-430 12620,-16 6047,-16"/>
</g>
<g id="clust11" class="cluster">
<title>cluster_16</title>
<polygon fill="#545e87" stroke="black" points="11600,-24 11600,-256 12612,-256 12612,-24 11600,-24"/>
</g>
<g id="clust12" class="cluster">
<title>cluster_18</title>
<polygon fill="#545e87" stroke="black" points="11512,-204 11512,-256 11592,-256 11592,-204 11512,-204"/>
</g>
<!-- 0 -->
<g id="node1" class="node">
<title>0</title>
<path fill="#24283b" stroke="#565f89" d="M52,-68C52,-68 12,-68 12,-68 6,-68 0,-62 0,-56 0,-56 0,-44 0,-44 0,-38 6,-32 12,-32 12,-32 52,-32 52,-32 58,-32 64,-38 64,-44 64,-44 64,-56 64,-56 64,-62 58,-68 52,-68"/>
<text text-anchor="middle" x="32" y="-46.3" font-family="Helvetica,sans-Serif" font-size="14.00" fill="#d5daf0">bytes32</text>
</g>
<!-- 1 -->
<g id="node2" class="node">
<title>1</title>
<path fill="#24283b" stroke="#565f89" d="M124,-68C124,-68 94,-68 94,-68 88,-68 82,-62 82,-56 82,-56 82,-44 82,-44 82,-38 88,-32 94,-32 94,-32 124,-32 124,-32 130,-32 136,-38 136,-44 136,-44 136,-56 136,-56 136,-62 130,-68 124,-68"/>
<text text-anchor="middle" x="109" y="-46.3" font-family="Helvetica,sans-Serif" font-size="14.00" fill="#d5daf0">uint8</text>
</g>
<!-- 2 -->
<g id="node3" class="node">
<title>2</title>
<path fill="#24283b" stroke="#565f89" d="M207.5,-68C207.5,-68 166.5,-68 166.5,-68 160.5,-68 154.5,-62 154.5,-56 154.5,-56 154.5,-44 154.5,-44 154.5,-38 160.5,-32 166.5,-32 166.5,-32 207.5,-32 207.5,-32 213.5,-32 219.5,-38 219.5,-44 219.5,-44 219.5,-56 219.5,-56 219.5,-62 213.5,-68 207.5,-68"/>
<text text-anchor="middle" x="187" y="-46.3" font-family="Helvetica,sans-Serif" font-size="14.00" fill="#d5daf0">address</text>
</g>
<!-- 3 -->
<g id="node4" class="node">
<title>3</title>
<path fill="#24283b" stroke="#565f89" d="M280,-68C280,-68 250,-68 250,-68 244,-68 238,-62 238,-56 238,-56 238,-44 238,-44 238,-38 244,-32 250,-32 250,-32 280,-32 280,-32 286,-32 292,-38 292,-44 292,-44 292,-56 292,-56 292,-62 286,-68 280,-68"/>
<text text-anchor="middle" x="265" y="-46.3" font-family="Helvetica,sans-Serif" font-size="14.00" fill="#d5daf0">bool</text>
</g>
<!-- 4 -->
<g id="node5" class="node">
<title>4</title>
<path fill="#24283b" stroke="#565f89" d="M352,-68C352,-68 322,-68 322,-68 316,-68 310,-62 310,-56 310,-56 310,-44 310,-44 310,-38 316,-32 322,-32 322,-32 352,-32 352,-32 358,-32 364,-38 364,-44 364,-44 364,-56 364,-56 364,-62 358,-68 352,-68"/>
<text text-anchor="middle" x="337" y="-46.3" font-family="Helvetica,sans-Serif" font-size="14.00" fill="#d5daf0">string</text>
</g>
<!-- 5 -->
<g id="node6" class="node">
<title>5</title>
<path fill="#24283b" stroke="#565f89" d="M424,-68C424,-68 394,-68 394,-68 388,-68 382,-62 382,-56 382,-56 382,-44 382,-44 382,-38 388,-32 394,-32 394,-32 424,-32 424,-32 430,-32 436,-38 436,-44 436,-44 436,-56 436,-56 436,-62 430,-68 424,-68"/>
<text text-anchor="middle" x="409" y="-46.3" font-family="Helvetica,sans-Serif" font-size="14.00" fill="#d5daf0">bytes</text>
</g>
<!-- 6 -->
<g id="node7" class="node">
<title>6</title>
<path fill="#24283b" stroke="#565f89" d="M506,-68C506,-68 466,-68 466,-68 460,-68 454,-62 454,-56 454,-56 454,-44 454,-44 454,-38 460,-32 466,-32 466,-32 506,-32 506,-32 512,-32 518,-38 518,-44 518,-44 518,-56 518,-56 518,-62 512,-68 506,-68"/>
<text text-anchor="middle" x="486" y="-46.3" font-family="Helvetica,sans-Serif" font-size="14.00" fill="#d5daf0">bytes20</text>
</g>
<!-- 7 -->
<g id="node8" class="node">
<title>7</title>
<path fill="#24283b" stroke="#565f89" d="M578,-68C578,-68 548,-68 548,-68 542,-68 536,-62 536,-56 536,-56 536,-44 536,-44 536,-38 542,-32 548,-32 548,-32 578,-32 578,-32 584,-32 590,-38 590,-44 590,-44 590,-56 590,-56 590,-62 584,-68 578,-68"/>
<text text-anchor="middle" x="563" y="-46.3" font-family="Helvetica,sans-Serif" font-size="14.00" fill="#d5daf0">uint64</text>
</g>
<!-- 8 -->
<g id="node9" class="node">
<title>8</title>
<path fill="#24283b" stroke="#565f89" d="M652,-68C652,-68 620,-68 620,-68 614,-68 608,-62 608,-56 608,-56 608,-44 608,-44 608,-38 614,-32 620,-32 620,-32 652,-32 652,-32 658,-32 664,-38 664,-44 664,-44 664,-56 664,-56 664,-62 658,-68 652,-68"/>
<text text-anchor="middle" x="636" y="-46.3" font-family="Helvetica,sans-Serif" font-size="14.00" fill="#d5daf0">bytes4</text>
</g>
<!-- 9 -->
<g id="node10" class="node">
<title>9</title>
<path fill="#24283b" stroke="#565f89" d="M1339.5,-68C1339.5,-68 694.5,-68 694.5,-68 688.5,-68 682.5,-62 682.5,-56 682.5,-56 682.5,-44 682.5,-44 682.5,-38 688.5,-32 694.5,-32 694.5,-32 1339.5,-32 1339.5,-32 1345.5,-32 1351.5,-38 1351.5,-44 1351.5,-44 1351.5,-56 1351.5,-56 1351.5,-62 1345.5,-68 1339.5,-68"/>
<text text-anchor="middle" x="1017" y="-46.3" font-family="Helvetica,sans-Serif" font-size="14.00" fill="#d5daf0">Msg(Msg { data: None, sender: None, sig: None, value: None, origin: None, gasprice: None, gaslimit: None })</text>
</g>
<!-- 10 -->
<g id="node11" class="node">
<title>10</title>
<path fill="#24283b" stroke="#565f89" d="M2334.5,-68C2334.5,-68 1381.5,-68 1381.5,-68 1375.5,-68 1369.5,-62 1369.5,-56 1369.5,-56 1369.5,-44 1369.5,-44 1369.5,-38 1375.5,-32 1381.5,-32 1381.5,-32 2334.5,-32 2334.5,-32 2340.5,-32 2346.5,-38 2346.5,-44 2346.5,-44 2346.5,-56 2346.5,-56 2346.5,-62 2340.5,-68 2334.5,-68"/>
<text text-anchor="middle" x="1858" y="-46.3" font-family="Helvetica,sans-Serif" font-size="14.00" fill="#d5daf0">Block(Block { hash: None, basefee: None, chainid: None, coinbase: None, difficulty: None, gaslimit: None, number: None, prevrandao: None, timestamp: None })</text>
</g>
<!-- 11 -->
<g id="node12" class="node">
<title>11</title>
<path fill="#24283b" stroke="#565f89" d="M2797,-857C2797,-857 2767,-857 2767,-857 2761,-857 2755,-851 2755,-845 2755,-845 2755,-833 2755,-833 2755,-827 2761,-821 2767,-821 2767,-821 2797,-821 2797,-821 2803,-821 2809,-827 2809,-833 2809,-833 2809,-845 2809,-845 2809,-851 2803,-857 2797,-857"/>
<text text-anchor="middle" x="2782" y="-835.3" font-family="Helvetica,sans-Serif" font-size="14.00" fill="#d5daf0">Entry</text>
</g>
<!-- 12 -->
<g id="node13" class="node">
<title>12</title>
<path fill="#24283b" stroke="#565f89" d="M2820,-770C2820,-770 2744,-770 2744,-770 2738,-770 2732,-764 2732,-758 2732,-758 2732,-746 2732,-746 2732,-740 2738,-734 2744,-734 2744,-734 2820,-734 2820,-734 2826,-734 2832,-740 2832,-746 2832,-746 2832,-758 2832,-758 2832,-764 2826,-770 2820,-770"/>
<text text-anchor="middle" x="2782" y="-748.3" font-family="Helvetica,sans-Serif" font-size="14.00" fill="#d5daf0">SourceUnit(0)</text>
</g>
<!-- 12&#45;&gt;11 -->
<g id="edge59" class="edge">
<title>12&#45;&gt;11</title>
<path fill="none" stroke="#414868" d="M2782,-770.2C2782,-781.84 2782,-797.45 2782,-810.76"/>
<polygon fill="#414868" stroke="#414868" points="2778.5,-810.82 2782,-820.82 2785.5,-810.82 2778.5,-810.82"/>
<text text-anchor="middle" x="2803.5" y="-791.8" font-family="Helvetica,sans-Serif" font-size="14.00" fill="#c0caf5">Source</text>
</g>
<!-- 13 -->
<g id="node14" class="node">
<title>13</title>
<path fill="#24283b" stroke="#565f89" d="M2840,-683C2840,-683 2724,-683 2724,-683 2718,-683 2712,-677 2712,-671 2712,-671 2712,-659 2712,-659 2712,-653 2718,-647 2724,-647 2724,-647 2840,-647 2840,-647 2846,-647 2852,-653 2852,-659 2852,-659 2852,-671 2852,-671 2852,-677 2846,-683 2840,-683"/>
<text text-anchor="middle" x="2782" y="-661.3" font-family="Helvetica,sans-Serif" font-size="14.00" fill="#d5daf0">SourceUnitPart(0, 0)</text>
</g>
<!-- 13&#45;&gt;12 -->
<g id="edge60" class="edge">
<title>13&#45;&gt;12</title>
<path fill="none" stroke="#414868" d="M2782,-683.2C2782,-694.84 2782,-710.45 2782,-723.76"/>
<polygon fill="#414868" stroke="#414868" points="2778.5,-723.82 2782,-733.82 2785.5,-723.82 2778.5,-723.82"/>
<text text-anchor="middle" x="2794.5" y="-704.8" font-family="Helvetica,sans-Serif" font-size="14.00" fill="#c0caf5">Part</text>
</g>
<!-- 14 -->
<g id="node15" class="node">
<title>14</title>
<path fill="#24283b" stroke="#9ece6a" d="M2826,-596C2826,-596 2738,-596 2738,-596 2732,-596 2726,-590 2726,-584 2726,-584 2726,-572 2726,-572 2726,-566 2732,-560 2738,-560 2738,-560 2826,-560 2826,-560 2832,-560 2838,-566 2838,-572 2838,-572 2838,-584 2838,-584 2838,-590 2832,-596 2826,-596"/>
<text text-anchor="middle" x="2782" y="-574.3" font-family="Helvetica,sans-Serif" font-size="14.00" fill="#d5daf0">contract ERC20</text>
</g>
<!-- 14&#45;&gt;13 -->
<g id="edge63" class="edge">
<title>14&#45;&gt;13</title>
<path fill="none" stroke="#414868" d="M2782,-596.2C2782,-607.84 2782,-623.45 2782,-636.76"/>
<polygon fill="#414868" stroke="#414868" points="2778.5,-636.82 2782,-646.82 2785.5,-636.82 2778.5,-636.82"/>
<text text-anchor="middle" x="2808" y="-617.8" font-family="Helvetica,sans-Serif" font-size="14.00" fill="#c0caf5">Contract</text>
</g>
<!-- 15 -->
<g id="node16" class="node">
<title>15</title>
<path fill="#24283b" stroke="#565f89" d="M12685.5,-68C12685.5,-68 12648.5,-68 12648.5,-68 12642.5,-68 12636.5,-62 12636.5,-56 12636.5,-56 12636.5,-44 12636.5,-44 12636.5,-38 12642.5,-32 12648.5,-32 12648.5,-32 12685.5,-32 12685.5,-32 12691.5,-32 12697.5,-38 12697.5,-44 12697.5,-44 12697.5,-56 12697.5,-56 12697.5,-62 12691.5,-68 12685.5,-68"/>
<text text-anchor="middle" x="12667" y="-46.3" font-family="Helvetica,sans-Serif" font-size="14.00" fill="#d5daf0">uint256</text>
</g>
<!-- 16 -->
<g id="node17" class="node">
<title>16</title>
<path fill="#24283b" stroke="#565f89" d="M12902,-68C12902,-68 12728,-68 12728,-68 12722,-68 12716,-62 12716,-56 12716,-56 12716,-44 12716,-44 12716,-38 12722,-32 12728,-32 12728,-32 12902,-32 12902,-32 12908,-32 12914,-38 12914,-44 12914,-44 12914,-56 12914,-56 12914,-62 12908,-68 12902,-68"/>
<text text-anchor="middle" x="12815" y="-46.3" font-family="Helvetica,sans-Serif" font-size="14.00" fill="#d5daf0">mapping (address =&gt; uint256)</text>
</g>
<!-- 17 -->
<g id="node18" class="node">
<title>17</title>
<path fill="#24283b" stroke="#565f89" d="M2921.5,-509C2921.5,-509 2642.5,-509 2642.5,-509 2636.5,-509 2630.5,-503 2630.5,-497 2630.5,-497 2630.5,-485 2630.5,-485 2630.5,-479 2636.5,-473 2642.5,-473 2642.5,-473 2921.5,-473 2921.5,-473 2927.5,-473 2933.5,-479 2933.5,-485 2933.5,-485 2933.5,-497 2933.5,-497 2933.5,-503 2927.5,-509 2921.5,-509"/>
<text text-anchor="middle" x="2782" y="-487.3" font-family="Helvetica,sans-Serif" font-size="14.00" fill="#d5daf0">mapping (address =&gt; uint256) public balanceOf</text>
</g>
<!-- 17&#45;&gt;14 -->
<g id="edge62" class="edge">
<title>17&#45;&gt;14</title>
<path fill="none" stroke="#414868" d="M2782,-509.2C2782,-520.84 2782,-536.45 2782,-549.76"/>
<polygon fill="#414868" stroke="#414868" points="2778.5,-549.82 2782,-559.82 2785.5,-549.82 2778.5,-549.82"/>
<text text-anchor="middle" x="2793" y="-530.8" font-family="Helvetica,sans-Serif" font-size="14.00" fill="#c0caf5">Var</text>
</g>
<!-- 18 -->
<g id="node19" class="node">
<title>18</title>
<path fill="#24283b" stroke="#73daca" d="M3099.5,-422C3099.5,-422 2840.5,-422 2840.5,-422 2834.5,-422 2828.5,-416 2828.5,-410 2828.5,-410 2828.5,-398 2828.5,-398 2828.5,-392 2834.5,-386 2840.5,-386 2840.5,-386 3099.5,-386 3099.5,-386 3105.5,-386 3111.5,-392 3111.5,-398 3111.5,-398 3111.5,-410 3111.5,-410 3111.5,-416 3105.5,-422 3099.5,-422"/>
<text text-anchor="middle" x="2970" y="-400.3" font-family="Helvetica,sans-Serif" font-size="14.00" fill="#d5daf0">function balanceOf(address)(address) public</text>
</g>
<!-- 18&#45;&gt;14 -->
<g id="edge61" class="edge">
<title>18&#45;&gt;14</title>
<path fill="none" stroke="#414868" d="M2970.59,-422.03C2970.49,-446.13 2966.75,-490.21 2943,-517 2918.88,-544.21 2881.23,-559.11 2848.4,-567.25"/>
<polygon fill="#414868" stroke="#414868" points="2847.34,-563.91 2838.39,-569.57 2848.92,-570.73 2847.34,-563.91"/>
<text text-anchor="middle" x="2979.5" y="-487.3" font-family="Helvetica,sans-Serif" font-size="14.00" fill="#c0caf5">Func</text>
</g>
<!-- 25 -->
<g id="node20" class="node">
<title>25</title>
<path fill="#24283b" stroke="#565f89" d="M2632.5,-335C2632.5,-335 2591.5,-335 2591.5,-335 2585.5,-335 2579.5,-329 2579.5,-323 2579.5,-323 2579.5,-311 2579.5,-311 2579.5,-305 2585.5,-299 2591.5,-299 2591.5,-299 2632.5,-299 2632.5,-299 2638.5,-299 2644.5,-305 2644.5,-311 2644.5,-311 2644.5,-323 2644.5,-323 2644.5,-329 2638.5,-335 2632.5,-335"/>
<text text-anchor="middle" x="2612" y="-313.3" font-family="Helvetica,sans-Serif" font-size="14.00" fill="#d5daf0">address</text>
</g>
<!-- 25&#45;&gt;18 -->
<g id="edge13" class="edge">
<title>25&#45;&gt;18</title>
<path fill="none" stroke="#414868" d="M2633.78,-335.1C2638.57,-338.17 2643.78,-341.02 2649,-343 2680.43,-354.95 2690.84,-347.43 2724,-353 2777.06,-361.92 2836.17,-373.87 2883.14,-383.84"/>
<polygon fill="#414868" stroke="#414868" points="2882.46,-387.28 2892.97,-385.94 2883.92,-380.43 2882.46,-387.28"/>
<text text-anchor="middle" x="2851.5" y="-356.8" font-family="Helvetica,sans-Serif" font-size="14.00" fill="#c0caf5">FunctionParam</text>
</g>
<!-- 26 -->
<g id="node21" class="node">
<title>26</title>
<path fill="#24283b" stroke="#565f89" d="M2549,-335C2549,-335 2375,-335 2375,-335 2369,-335 2363,-329 2363,-323 2363,-323 2363,-311 2363,-311 2363,-305 2369,-299 2375,-299 2375,-299 2549,-299 2549,-299 2555,-299 2561,-305 2561,-311 2561,-311 2561,-323 2561,-323 2561,-329 2555,-335 2549,-335"/>
<text text-anchor="middle" x="2462" y="-313.3" font-family="Helvetica,sans-Serif" font-size="14.00" fill="#d5daf0">mapping (address =&gt; uint256)</text>
</g>
<!-- 26&#45;&gt;18 -->
<g id="edge14" class="edge">
<title>26&#45;&gt;18</title>
<path fill="none" stroke="#414868" d="M2509.39,-335.02C2542.04,-346.08 2586.65,-359.91 2627,-368 2689,-380.44 2758.24,-388.57 2818.18,-393.83"/>
<polygon fill="#414868" stroke="#414868" points="2818.22,-397.35 2828.49,-394.72 2818.82,-390.37 2818.22,-397.35"/>
<text text-anchor="middle" x="2673.5" y="-356.8" font-family="Helvetica,sans-Serif" font-size="14.00" fill="#c0caf5">FunctionReturn</text>
</g>
<!-- 35 -->
<g id="node22" class="node">
<title>35</title>
<path fill="#24283b" stroke="#bb9af7" d="M2989.5,-335C2989.5,-335 2950.5,-335 2950.5,-335 2944.5,-335 2938.5,-329 2938.5,-323 2938.5,-323 2938.5,-311 2938.5,-311 2938.5,-305 2944.5,-299 2950.5,-299 2950.5,-299 2989.5,-299 2989.5,-299 2995.5,-299 3001.5,-305 3001.5,-311 3001.5,-311 3001.5,-323 3001.5,-323 3001.5,-329 2995.5,-335 2989.5,-335"/>
<text text-anchor="middle" x="2970" y="-313.3" font-family="Helvetica,sans-Serif" font-size="14.00" fill="#d5daf0">Context</text>
</g>
<!-- 35&#45;&gt;18 -->
<g id="edge15" class="edge">
<title>35&#45;&gt;18</title>
<path fill="none" stroke="#414868" d="M2970,-335.2C2970,-346.84 2970,-362.45 2970,-375.76"/>
<polygon fill="#414868" stroke="#414868" points="2966.5,-375.82 2970,-385.82 2973.5,-375.82 2966.5,-375.82"/>
<text text-anchor="middle" x="3021.5" y="-356.8" font-family="Helvetica,sans-Serif" font-size="14.00" fill="#c0caf5">Context(Context)</text>
</g>
<!-- 36 -->
<g id="node23" class="node">
<title>36</title>
<path fill="#24283b" stroke="#ff9e64" d="M3268.5,-248C3268.5,-248 2673.5,-248 2673.5,-248 2667.5,-248 2661.5,-242 2661.5,-236 2661.5,-236 2661.5,-224 2661.5,-224 2661.5,-218 2667.5,-212 2673.5,-212 2673.5,-212 3268.5,-212 3268.5,-212 3274.5,-212 3280.5,-218 3280.5,-224 3280.5,-224 3280.5,-236 3280.5,-236 3280.5,-242 3274.5,-248 3268.5,-248"/>
<text text-anchor="middle" x="2971" y="-226.3" font-family="Helvetica,sans-Serif" font-size="14.00" fill="#d5daf0">balanceOf &#45;&#45; mapping (address =&gt; uint256) &#45;&#45; range: [{len: 0, indices: {}}, {len: 2**256 &#45; 1, indices: {}}]</text>
</g>
<!-- 36&#45;&gt;35 -->
<g id="edge1" class="edge">
<title>36&#45;&gt;35</title>
<path fill="none" stroke="#414868" d="M2924.93,-248.13C2917.77,-252.83 2911.33,-258.7 2907,-266 2903.6,-271.73 2903.62,-275.25 2907,-281 2908.54,-283.62 2917.97,-289.28 2929.08,-295.3"/>
<polygon fill="#414868" stroke="#414868" points="2927.76,-298.57 2938.24,-300.16 2931.04,-292.38 2927.76,-298.57"/>
<text text-anchor="middle" x="2960" y="-269.8" font-family="Helvetica,sans-Serif" font-size="14.00" fill="#c0caf5">Context(Variable)</text>
</g>
<!-- 36&#45;&gt;35 -->
<g id="edge2" class="edge">
<title>36&#45;&gt;35</title>
<path fill="none" stroke="#414868" d="M2999.19,-248.16C3010.12,-257.16 3018.79,-268.82 3013,-281 3011.14,-284.91 3008.61,-288.53 3005.69,-291.84"/>
<polygon fill="#414868" stroke="#414868" points="3003.07,-289.5 2998.34,-298.98 3007.95,-294.52 3003.07,-289.5"/>
<text text-anchor="middle" x="3062.5" y="-269.8" font-family="Helvetica,sans-Serif" font-size="14.00" fill="#c0caf5">Context(Return)</text>
</g>
<!-- 51 -->
<g id="node24" class="node">
<title>51</title>
<path fill="#24283b" stroke="#bb9af7" d="M4855.5,-248C4855.5,-248 4816.5,-248 4816.5,-248 4810.5,-248 4804.5,-242 4804.5,-236 4804.5,-236 4804.5,-224 4804.5,-224 4804.5,-218 4810.5,-212 4816.5,-212 4816.5,-212 4855.5,-212 4855.5,-212 4861.5,-212 4867.5,-218 4867.5,-224 4867.5,-224 4867.5,-236 4867.5,-236 4867.5,-242 4861.5,-248 4855.5,-248"/>
<text text-anchor="middle" x="4836" y="-226.3" font-family="Helvetica,sans-Serif" font-size="14.00" fill="#d5daf0">Context</text>
</g>
<!-- 52 -->
<g id="node28" class="node">
<title>52</title>
<path fill="#24283b" stroke="#73daca" d="M4871.5,-335C4871.5,-335 4800.5,-335 4800.5,-335 4794.5,-335 4788.5,-329 4788.5,-323 4788.5,-323 4788.5,-311 4788.5,-311 4788.5,-305 4794.5,-299 4800.5,-299 4800.5,-299 4871.5,-299 4871.5,-299 4877.5,-299 4883.5,-305 4883.5,-311 4883.5,-311 4883.5,-323 4883.5,-323 4883.5,-329 4877.5,-335 4871.5,-335"/>
<text text-anchor="middle" x="4836" y="-313.3" font-family="Helvetica,sans-Serif" font-size="14.00" fill="#d5daf0">Function Call</text>
</g>
<!-- 51&#45;&gt;52 -->
<g id="edge16" class="edge">
<title>51&#45;&gt;52</title>
<path fill="none" stroke="#414868" d="M4836,-248.2C4836,-259.84 4836,-275.45 4836,-288.76"/>
<polygon fill="#414868" stroke="#414868" points="4832.5,-288.82 4836,-298.82 4839.5,-288.82 4832.5,-288.82"/>
<text text-anchor="middle" x="4898" y="-269.8" font-family="Helvetica,sans-Serif" font-size="14.00" fill="#c0caf5">Context(Subcontext)</text>
</g>
<!-- 54 -->
<g id="node25" class="node">
<title>54</title>
<path fill="#24283b" stroke="#ff9e64" d="M5529.5,-155C5529.5,-155 4934.5,-155 4934.5,-155 4928.5,-155 4922.5,-149 4922.5,-143 4922.5,-143 4922.5,-131 4922.5,-131 4922.5,-125 4928.5,-119 4934.5,-119 4934.5,-119 5529.5,-119 5529.5,-119 5535.5,-119 5541.5,-125 5541.5,-131 5541.5,-131 5541.5,-143 5541.5,-143 5541.5,-149 5535.5,-155 5529.5,-155"/>
<text text-anchor="middle" x="5232" y="-133.3" font-family="Helvetica,sans-Serif" font-size="14.00" fill="#d5daf0">balanceOf &#45;&#45; mapping (address =&gt; uint256) &#45;&#45; range: [{len: 0, indices: {}}, {len: 2**256 &#45; 1, indices: {}}]</text>
</g>
<!-- 54&#45;&gt;51 -->
<g id="edge3" class="edge">
<title>54&#45;&gt;51</title>
<path fill="none" stroke="#414868" d="M5154.9,-155.01C5129.45,-160.68 5101,-167.06 5075,-173 5005.72,-188.84 4925.28,-207.81 4877.62,-219.1"/>
<polygon fill="#414868" stroke="#414868" points="4876.6,-215.75 4867.68,-221.46 4878.21,-222.56 4876.6,-215.75"/>
<text text-anchor="middle" x="5128" y="-176.8" font-family="Helvetica,sans-Serif" font-size="14.00" fill="#c0caf5">Context(Variable)</text>
</g>
<!-- 54&#45;&gt;51 -->
<g id="edge4" class="edge">
<title>54&#45;&gt;51</title>
<path fill="none" stroke="#414868" d="M5219.32,-155.36C5210.05,-166.65 5196.43,-180.61 5181,-188 5128.29,-213.26 4957.67,-223.77 4877.87,-227.39"/>
<polygon fill="#414868" stroke="#414868" points="4877.53,-223.9 4867.69,-227.83 4877.83,-230.89 4877.53,-223.9"/>
<text text-anchor="middle" x="5249.5" y="-176.8" font-family="Helvetica,sans-Serif" font-size="14.00" fill="#c0caf5">Context(Return)</text>
</g>
<!-- 56 -->
<g id="node26" class="node">
<title>56</title>
<path fill="#24283b" stroke="#ff9e64" d="M4892.5,-155C4892.5,-155 4593.5,-155 4593.5,-155 4587.5,-155 4581.5,-149 4581.5,-143 4581.5,-143 4581.5,-131 4581.5,-131 4581.5,-125 4587.5,-119 4593.5,-119 4593.5,-119 4892.5,-119 4892.5,-119 4898.5,-119 4904.5,-125 4904.5,-131 4904.5,-131 4904.5,-143 4904.5,-143 4904.5,-149 4898.5,-155 4892.5,-155"/>
<text text-anchor="middle" x="4743" y="-133.3" font-family="Helvetica,sans-Serif" font-size="14.00" fill="#d5daf0">preTokenBalance &#45;&#45; uint256 &#45;&#45; range: [0, 2**256 &#45; 1]</text>
</g>
<!-- 56&#45;&gt;51 -->
<g id="edge5" class="edge">
<title>56&#45;&gt;51</title>
<path fill="none" stroke="#414868" d="M4760.49,-155.12C4774.78,-169.1 4795.15,-189.03 4811.14,-204.67"/>
<polygon fill="#414868" stroke="#414868" points="4808.99,-207.47 4818.59,-211.96 4813.89,-202.46 4808.99,-207.47"/>
<text text-anchor="middle" x="4845" y="-176.8" font-family="Helvetica,sans-Serif" font-size="14.00" fill="#c0caf5">Context(Variable)</text>
</g>
<!-- 57 -->
<g id="node27" class="node">
<title>57</title>
<path fill="#24283b" stroke="#ff9e64" d="M4943,-68C4943,-68 4481,-68 4481,-68 4475,-68 4469,-62 4469,-56 4469,-56 4469,-44 4469,-44 4469,-38 4475,-32 4481,-32 4481,-32 4943,-32 4943,-32 4949,-32 4955,-38 4955,-44 4955,-44 4955,-56 4955,-56 4955,-62 4949,-68 4943,-68"/>
<text text-anchor="middle" x="4712" y="-46.3" font-family="Helvetica,sans-Serif" font-size="14.00" fill="#d5daf0">preTokenBalance &#45;&#45; uint256 &#45;&#45; range: [uint256(balanceOf), uint256(balanceOf)]</text>
</g>
<!-- 57&#45;&gt;51 -->
<g id="edge6" class="edge">
<title>57&#45;&gt;51</title>
<path fill="none" stroke="#414868" d="M4564.7,-68.01C4492.7,-82.44 4428.93,-108.53 4467,-155 4508.04,-205.08 4706.7,-221.97 4794.33,-227.05"/>
<polygon fill="#414868" stroke="#414868" points="4794.27,-230.55 4804.45,-227.61 4794.66,-223.56 4794.27,-230.55"/>
<text text-anchor="middle" x="4520" y="-133.3" font-family="Helvetica,sans-Serif" font-size="14.00" fill="#c0caf5">Context(Variable)</text>
</g>
<!-- 57&#45;&gt;56 -->
<g id="edge7" class="edge">
<title>57&#45;&gt;56</title>
<path fill="none" stroke="#414868" d="M4718.27,-68.2C4722.56,-79.95 4728.32,-95.76 4733.21,-109.16"/>
<polygon fill="#414868" stroke="#414868" points="4730.02,-110.63 4736.74,-118.82 4736.6,-108.23 4730.02,-110.63"/>
<text text-anchor="middle" x="4771" y="-89.8" font-family="Helvetica,sans-Serif" font-size="14.00" fill="#c0caf5">Context(Prev)</text>
</g>
<!-- 52&#45;&gt;18 -->
<g id="edge17" class="edge">
<title>52&#45;&gt;18</title>
<path fill="none" stroke="#414868" d="M4788.47,-320.17C4553.93,-330.85 3515.43,-378.15 3121.88,-396.08"/>
<polygon fill="#414868" stroke="#414868" points="3121.68,-392.59 3111.85,-396.54 3122,-399.58 3121.68,-392.59"/>
<text text-anchor="middle" x="4053.5" y="-356.8" font-family="Helvetica,sans-Serif" font-size="14.00" fill="#c0caf5">Context(Call)</text>
</g>
<!-- 41 -->
<g id="node51" class="node">
<title>41</title>
<path fill="#24283b" stroke="#bb9af7" d="M8718.5,-422C8718.5,-422 8679.5,-422 8679.5,-422 8673.5,-422 8667.5,-416 8667.5,-410 8667.5,-410 8667.5,-398 8667.5,-398 8667.5,-392 8673.5,-386 8679.5,-386 8679.5,-386 8718.5,-386 8718.5,-386 8724.5,-386 8730.5,-392 8730.5,-398 8730.5,-398 8730.5,-410 8730.5,-410 8730.5,-416 8724.5,-422 8718.5,-422"/>
<text text-anchor="middle" x="8699" y="-400.3" font-family="Helvetica,sans-Serif" font-size="14.00" fill="#d5daf0">Context</text>
</g>
<!-- 52&#45;&gt;41 -->
<g id="edge39" class="edge">
<title>52&#45;&gt;41</title>
<path fill="none" stroke="#414868" d="M4883.53,-319.71C5087.28,-326.97 5907.15,-355.44 6581,-368 6637.16,-369.05 8493.95,-372.57 8657.12,-385.63"/>
<polygon fill="#414868" stroke="#414868" points="8656.82,-389.12 8667.17,-386.84 8657.66,-382.17 8656.82,-389.12"/>
<text text-anchor="middle" x="6643" y="-356.8" font-family="Helvetica,sans-Serif" font-size="14.00" fill="#c0caf5">Context(Subcontext)</text>
</g>
<!-- 63 -->
<g id="node29" class="node">
<title>63</title>
<path fill="#24283b" stroke="#bb9af7" d="M3772.5,-248C3772.5,-248 3733.5,-248 3733.5,-248 3727.5,-248 3721.5,-242 3721.5,-236 3721.5,-236 3721.5,-224 3721.5,-224 3721.5,-218 3727.5,-212 3733.5,-212 3733.5,-212 3772.5,-212 3772.5,-212 3778.5,-212 3784.5,-218 3784.5,-224 3784.5,-224 3784.5,-236 3784.5,-236 3784.5,-242 3778.5,-248 3772.5,-248"/>
<text text-anchor="middle" x="3753" y="-226.3" font-family="Helvetica,sans-Serif" font-size="14.00" fill="#d5daf0">Context</text>
</g>
<!-- 64 -->
<g id="node33" class="node">
<title>64</title>
<path fill="#24283b" stroke="#73daca" d="M3788.5,-335C3788.5,-335 3717.5,-335 3717.5,-335 3711.5,-335 3705.5,-329 3705.5,-323 3705.5,-323 3705.5,-311 3705.5,-311 3705.5,-305 3711.5,-299 3717.5,-299 3717.5,-299 3788.5,-299 3788.5,-299 3794.5,-299 3800.5,-305 3800.5,-311 3800.5,-311 3800.5,-323 3800.5,-323 3800.5,-329 3794.5,-335 3788.5,-335"/>
<text text-anchor="middle" x="3753" y="-313.3" font-family="Helvetica,sans-Serif" font-size="14.00" fill="#d5daf0">Function Call</text>
</g>
<!-- 63&#45;&gt;64 -->
<g id="edge18" class="edge">
<title>63&#45;&gt;64</title>
<path fill="none" stroke="#414868" d="M3753,-248.2C3753,-259.84 3753,-275.45 3753,-288.76"/>
<polygon fill="#414868" stroke="#414868" points="3749.5,-288.82 3753,-298.82 3756.5,-288.82 3749.5,-288.82"/>
<text text-anchor="middle" x="3815" y="-269.8" font-family="Helvetica,sans-Serif" font-size="14.00" fill="#c0caf5">Context(Subcontext)</text>
</g>
<!-- 66 -->
<g id="node30" class="node">
<title>66</title>
<path fill="#24283b" stroke="#ff9e64" d="M4402.5,-155C4402.5,-155 3807.5,-155 3807.5,-155 3801.5,-155 3795.5,-149 3795.5,-143 3795.5,-143 3795.5,-131 3795.5,-131 3795.5,-125 3801.5,-119 3807.5,-119 3807.5,-119 4402.5,-119 4402.5,-119 4408.5,-119 4414.5,-125 4414.5,-131 4414.5,-131 4414.5,-143 4414.5,-143 4414.5,-149 4408.5,-155 4402.5,-155"/>
<text text-anchor="middle" x="4105" y="-133.3" font-family="Helvetica,sans-Serif" font-size="14.00" fill="#d5daf0">balanceOf &#45;&#45; mapping (address =&gt; uint256) &#45;&#45; range: [{len: 0, indices: {}}, {len: 2**256 &#45; 1, indices: {}}]</text>
</g>
<!-- 66&#45;&gt;63 -->
<g id="edge8" class="edge">
<title>66&#45;&gt;63</title>
<path fill="none" stroke="#414868" d="M3987.97,-155.03C3960.85,-159.95 3932.25,-165.95 3906,-173 3867.3,-183.4 3824.58,-199.44 3794.14,-211.69"/>
<polygon fill="#414868" stroke="#414868" points="3792.65,-208.52 3784.71,-215.52 3795.29,-215 3792.65,-208.52"/>
<text text-anchor="middle" x="3959" y="-176.8" font-family="Helvetica,sans-Serif" font-size="14.00" fill="#c0caf5">Context(Variable)</text>
</g>
<!-- 66&#45;&gt;63 -->
<g id="edge9" class="edge">
<title>66&#45;&gt;63</title>
<path fill="none" stroke="#414868" d="M4078.82,-155.17C4060.76,-166.22 4035.8,-179.98 4012,-188 3937.94,-212.97 3846.74,-222.89 3794.69,-226.71"/>
<polygon fill="#414868" stroke="#414868" points="3794.24,-223.23 3784.51,-227.42 3794.72,-230.22 3794.24,-223.23"/>
<text text-anchor="middle" x="4094.5" y="-176.8" font-family="Helvetica,sans-Serif" font-size="14.00" fill="#c0caf5">Context(Return)</text>
</g>
<!-- 68 -->
<g id="node31" class="node">
<title>68</title>
<path fill="#24283b" stroke="#ff9e64" d="M3622.5,-155C3622.5,-155 3317.5,-155 3317.5,-155 3311.5,-155 3305.5,-149 3305.5,-143 3305.5,-143 3305.5,-131 3305.5,-131 3305.5,-125 3311.5,-119 3317.5,-119 3317.5,-119 3622.5,-119 3622.5,-119 3628.5,-119 3634.5,-125 3634.5,-131 3634.5,-131 3634.5,-143 3634.5,-143 3634.5,-149 3628.5,-155 3622.5,-155"/>
<text text-anchor="middle" x="3470" y="-133.3" font-family="Helvetica,sans-Serif" font-size="14.00" fill="#d5daf0">postTokenBalance &#45;&#45; uint256 &#45;&#45; range: [0, 2**256 &#45; 1]</text>
</g>
<!-- 68&#45;&gt;63 -->
<g id="edge10" class="edge">
<title>68&#45;&gt;63</title>
<path fill="none" stroke="#414868" d="M3495.78,-155.04C3513.26,-165.9 3537.23,-179.48 3560,-188 3610.36,-206.85 3671.52,-218 3711.31,-223.8"/>
<polygon fill="#414868" stroke="#414868" points="3711.05,-227.3 3721.44,-225.23 3712.03,-220.37 3711.05,-227.3"/>
<text text-anchor="middle" x="3613" y="-176.8" font-family="Helvetica,sans-Serif" font-size="14.00" fill="#c0caf5">Context(Variable)</text>
</g>
<!-- 69 -->
<g id="node32" class="node">
<title>69</title>
<path fill="#24283b" stroke="#ff9e64" d="M3852,-68C3852,-68 3384,-68 3384,-68 3378,-68 3372,-62 3372,-56 3372,-56 3372,-44 3372,-44 3372,-38 3378,-32 3384,-32 3384,-32 3852,-32 3852,-32 3858,-32 3864,-38 3864,-44 3864,-44 3864,-56 3864,-56 3864,-62 3858,-68 3852,-68"/>
<text text-anchor="middle" x="3618" y="-46.3" font-family="Helvetica,sans-Serif" font-size="14.00" fill="#d5daf0">postTokenBalance &#45;&#45; uint256 &#45;&#45; range: [uint256(balanceOf), uint256(balanceOf)]</text>
</g>
<!-- 69&#45;&gt;63 -->
<g id="edge11" class="edge">
<title>69&#45;&gt;63</title>
<path fill="none" stroke="#414868" d="M3628.83,-68.04C3632.41,-73.73 3636.41,-80.12 3640,-86 3658.6,-116.44 3659.3,-126.69 3681,-155 3694.62,-172.77 3712.08,-190.81 3726.4,-204.63"/>
<polygon fill="#414868" stroke="#414868" points="3724.33,-207.49 3733.99,-211.84 3729.15,-202.42 3724.33,-207.49"/>
<text text-anchor="middle" x="3734" y="-133.3" font-family="Helvetica,sans-Serif" font-size="14.00" fill="#c0caf5">Context(Variable)</text>
</g>
<!-- 69&#45;&gt;68 -->
<g id="edge12" class="edge">
<title>69&#45;&gt;68</title>
<path fill="none" stroke="#414868" d="M3588.05,-68.2C3565.11,-81.38 3533.28,-99.66 3508.45,-113.92"/>
<polygon fill="#414868" stroke="#414868" points="3506.58,-110.95 3499.65,-118.97 3510.07,-117.02 3506.58,-110.95"/>
<text text-anchor="middle" x="3594" y="-89.8" font-family="Helvetica,sans-Serif" font-size="14.00" fill="#c0caf5">Context(Prev)</text>
</g>
<!-- 64&#45;&gt;18 -->
<g id="edge19" class="edge">
<title>64&#45;&gt;18</title>
<path fill="none" stroke="#414868" d="M3705.49,-323.16C3592.16,-335.46 3302.02,-366.96 3121.88,-386.51"/>
<polygon fill="#414868" stroke="#414868" points="3121.34,-383.05 3111.78,-387.61 3122.1,-390.01 3121.34,-383.05"/>
<text text-anchor="middle" x="3447.5" y="-356.8" font-family="Helvetica,sans-Serif" font-size="14.00" fill="#c0caf5">Context(Call)</text>
</g>
<!-- 64&#45;&gt;41 -->
<g id="edge46" class="edge">
<title>64&#45;&gt;41</title>
<path fill="none" stroke="#414868" d="M3800.6,-319.17C3946.83,-322.75 4402.45,-333.91 4780,-343 5246.22,-354.23 5362.7,-360.96 5829,-368 5905.86,-369.16 8460.58,-368.15 8657.04,-385.53"/>
<polygon fill="#414868" stroke="#414868" points="8656.8,-389.03 8667.17,-386.84 8657.7,-382.08 8656.8,-389.03"/>
<text text-anchor="middle" x="5891" y="-356.8" font-family="Helvetica,sans-Serif" font-size="14.00" fill="#c0caf5">Context(Subcontext)</text>
</g>
<!-- 19 -->
<g id="node34" class="node">
<title>19</title>
<path fill="#24283b" stroke="#565f89" d="M2624,-596C2624,-596 2508,-596 2508,-596 2502,-596 2496,-590 2496,-584 2496,-584 2496,-572 2496,-572 2496,-566 2502,-560 2508,-560 2508,-560 2624,-560 2624,-560 2630,-560 2636,-566 2636,-572 2636,-572 2636,-584 2636,-584 2636,-590 2630,-596 2624,-596"/>
<text text-anchor="middle" x="2566" y="-574.3" font-family="Helvetica,sans-Serif" font-size="14.00" fill="#d5daf0">SourceUnitPart(0, 1)</text>
</g>
<!-- 19&#45;&gt;12 -->
<g id="edge64" class="edge">
<title>19&#45;&gt;12</title>
<path fill="none" stroke="#414868" d="M2582.65,-596.16C2603.85,-617.6 2642.05,-654.88 2678,-683 2699.02,-699.44 2724.01,-715.87 2744.22,-728.46"/>
<polygon fill="#414868" stroke="#414868" points="2742.5,-731.51 2752.85,-733.78 2746.18,-725.55 2742.5,-731.51"/>
<text text-anchor="middle" x="2690.5" y="-661.3" font-family="Helvetica,sans-Serif" font-size="14.00" fill="#c0caf5">Part</text>
</g>
<!-- 20 -->
<g id="node35" class="node">
<title>20</title>
<path fill="#24283b" stroke="#9ece6a" d="M2557.5,-509C2557.5,-509 2428.5,-509 2428.5,-509 2422.5,-509 2416.5,-503 2416.5,-497 2416.5,-497 2416.5,-485 2416.5,-485 2416.5,-479 2422.5,-473 2428.5,-473 2428.5,-473 2557.5,-473 2557.5,-473 2563.5,-473 2569.5,-479 2569.5,-485 2569.5,-485 2569.5,-497 2569.5,-497 2569.5,-503 2563.5,-509 2557.5,-509"/>
<text text-anchor="middle" x="2493" y="-487.3" font-family="Helvetica,sans-Serif" font-size="14.00" fill="#d5daf0">library SafeTransferLib</text>
</g>
<!-- 20&#45;&gt;14 -->
<g id="edge70" class="edge">
<title>20&#45;&gt;14</title>
<path fill="none" stroke="#414868" d="M2519.94,-509.24C2538.2,-520.18 2563.24,-533.78 2587,-542 2628.62,-556.41 2677.4,-565.16 2715.75,-570.31"/>
<polygon fill="#414868" stroke="#414868" points="2715.41,-573.79 2725.77,-571.6 2716.31,-566.85 2715.41,-573.79"/>
<text text-anchor="middle" x="2682.5" y="-530.8" font-family="Helvetica,sans-Serif" font-size="14.00" fill="#c0caf5">LibraryContract(NodeIndex(23))</text>
</g>
<!-- 20&#45;&gt;19 -->
<g id="edge66" class="edge">
<title>20&#45;&gt;19</title>
<path fill="none" stroke="#414868" d="M2489.13,-509.03C2487.75,-519.35 2487.82,-532.35 2494,-542 2496.88,-546.49 2500.51,-550.43 2504.61,-553.87"/>
<polygon fill="#414868" stroke="#414868" points="2502.82,-556.9 2512.98,-559.89 2506.91,-551.21 2502.82,-556.9"/>
<text text-anchor="middle" x="2520" y="-530.8" font-family="Helvetica,sans-Serif" font-size="14.00" fill="#c0caf5">Contract</text>
</g>
<!-- 21 -->
<g id="node36" class="node">
<title>21</title>
<path fill="#24283b" stroke="#73daca" d="M984.5,-422C984.5,-422 407.5,-422 407.5,-422 401.5,-422 395.5,-416 395.5,-410 395.5,-410 395.5,-398 395.5,-398 395.5,-392 401.5,-386 407.5,-386 407.5,-386 984.5,-386 984.5,-386 990.5,-386 996.5,-392 996.5,-398 996.5,-398 996.5,-410 996.5,-410 996.5,-416 990.5,-422 984.5,-422"/>
<text text-anchor="middle" x="696" y="-400.3" font-family="Helvetica,sans-Serif" font-size="14.00" fill="#d5daf0">function safeTransfer(ERC20, address, uint256)(ERC20token, addressto, uint256amount) internal</text>
</g>
<!-- 21&#45;&gt;20 -->
<g id="edge65" class="edge">
<title>21&#45;&gt;20</title>
<path fill="none" stroke="#414868" d="M996.52,-419.22C1416.04,-439.06 2154.06,-473.97 2405.93,-485.88"/>
<polygon fill="#414868" stroke="#414868" points="2405.96,-489.39 2416.12,-486.36 2406.29,-482.39 2405.96,-489.39"/>
<text text-anchor="middle" x="1717.5" y="-443.8" font-family="Helvetica,sans-Serif" font-size="14.00" fill="#c0caf5">Func</text>
</g>
<!-- 27 -->
<g id="node37" class="node">
<title>27</title>
<path fill="#24283b" stroke="#565f89" d="M696.5,-335C696.5,-335 627.5,-335 627.5,-335 621.5,-335 615.5,-329 615.5,-323 615.5,-323 615.5,-311 615.5,-311 615.5,-305 621.5,-299 627.5,-299 627.5,-299 696.5,-299 696.5,-299 702.5,-299 708.5,-305 708.5,-311 708.5,-311 708.5,-323 708.5,-323 708.5,-329 702.5,-335 696.5,-335"/>
<text text-anchor="middle" x="662" y="-313.3" font-family="Helvetica,sans-Serif" font-size="14.00" fill="#d5daf0">ERC20token</text>
</g>
<!-- 27&#45;&gt;21 -->
<g id="edge23" class="edge">
<title>27&#45;&gt;21</title>
<path fill="none" stroke="#414868" d="M668.88,-335.2C673.58,-346.95 679.9,-362.76 685.26,-376.16"/>
<polygon fill="#414868" stroke="#414868" points="682.17,-377.84 689.13,-385.82 688.67,-375.24 682.17,-377.84"/>
<text text-anchor="middle" x="727.5" y="-356.8" font-family="Helvetica,sans-Serif" font-size="14.00" fill="#c0caf5">FunctionParam</text>
</g>
<!-- 28 -->
<g id="node38" class="node">
<title>28</title>
<path fill="#24283b" stroke="#565f89" d="M585,-335C585,-335 533,-335 533,-335 527,-335 521,-329 521,-323 521,-323 521,-311 521,-311 521,-305 527,-299 533,-299 533,-299 585,-299 585,-299 591,-299 597,-305 597,-311 597,-311 597,-323 597,-323 597,-329 591,-335 585,-335"/>
<text text-anchor="middle" x="559" y="-313.3" font-family="Helvetica,sans-Serif" font-size="14.00" fill="#d5daf0">addressto</text>
</g>
<!-- 28&#45;&gt;21 -->
<g id="edge24" class="edge">
<title>28&#45;&gt;21</title>
<path fill="none" stroke="#414868" d="M561.88,-335C564.56,-345.85 569.61,-359.42 579,-368 584.59,-373.11 590.91,-377.48 597.63,-381.21"/>
<polygon fill="#414868" stroke="#414868" points="596.52,-384.57 607.02,-385.92 599.65,-378.31 596.52,-384.57"/>
<text text-anchor="middle" x="625.5" y="-356.8" font-family="Helvetica,sans-Serif" font-size="14.00" fill="#c0caf5">FunctionParam</text>
</g>
<!-- 29 -->
<g id="node39" class="node">
<title>29</title>
<path fill="#24283b" stroke="#565f89" d="M490.5,-335C490.5,-335 407.5,-335 407.5,-335 401.5,-335 395.5,-329 395.5,-323 395.5,-323 395.5,-311 395.5,-311 395.5,-305 401.5,-299 407.5,-299 407.5,-299 490.5,-299 490.5,-299 496.5,-299 502.5,-305 502.5,-311 502.5,-311 502.5,-323 502.5,-323 502.5,-329 496.5,-335 490.5,-335"/>
<text text-anchor="middle" x="449" y="-313.3" font-family="Helvetica,sans-Serif" font-size="14.00" fill="#d5daf0">uint256amount</text>
</g>
<!-- 29&#45;&gt;21 -->
<g id="edge25" class="edge">
<title>29&#45;&gt;21</title>
<path fill="none" stroke="#414868" d="M452.23,-335.48C455.2,-346.52 460.77,-360.14 471,-368 479.17,-374.28 493.33,-379.45 510.71,-383.7"/>
<polygon fill="#414868" stroke="#414868" points="510.15,-387.17 520.67,-385.97 511.7,-380.34 510.15,-387.17"/>
<text text-anchor="middle" x="517.5" y="-356.8" font-family="Helvetica,sans-Serif" font-size="14.00" fill="#c0caf5">FunctionParam</text>
</g>
<!-- 37 -->
<g id="node40" class="node">
<title>37</title>
<path fill="#24283b" stroke="#bb9af7" d="M1274.5,-335C1274.5,-335 1235.5,-335 1235.5,-335 1229.5,-335 1223.5,-329 1223.5,-323 1223.5,-323 1223.5,-311 1223.5,-311 1223.5,-305 1229.5,-299 1235.5,-299 1235.5,-299 1274.5,-299 1274.5,-299 1280.5,-299 1286.5,-305 1286.5,-311 1286.5,-311 1286.5,-323 1286.5,-323 1286.5,-329 1280.5,-335 1274.5,-335"/>
<text text-anchor="middle" x="1255" y="-313.3" font-family="Helvetica,sans-Serif" font-size="14.00" fill="#d5daf0">Context</text>
</g>
<!-- 37&#45;&gt;21 -->
<g id="edge26" class="edge">
<title>37&#45;&gt;21</title>
<path fill="none" stroke="#414868" d="M1234.53,-335.19C1229.98,-338.25 1225.02,-341.07 1220,-343 1171.82,-361.53 1064.46,-375.37 959.37,-385.07"/>
<polygon fill="#414868" stroke="#414868" points="958.86,-381.6 949.21,-385.99 959.49,-388.57 958.86,-381.6"/>
<text text-anchor="middle" x="1229.5" y="-356.8" font-family="Helvetica,sans-Serif" font-size="14.00" fill="#c0caf5">Context(Context)</text>
</g>
<!-- 38 -->
<g id="node41" class="node">
<title>38</title>
<path fill="#24283b" stroke="#ff9e64" d="M2319,-248C2319,-248 2079,-248 2079,-248 2073,-248 2067,-242 2067,-236 2067,-236 2067,-224 2067,-224 2067,-218 2073,-212 2079,-212 2079,-212 2319,-212 2319,-212 2325,-212 2331,-218 2331,-224 2331,-224 2331,-236 2331,-236 2331,-242 2325,-248 2319,-248"/>
<text text-anchor="middle" x="2199" y="-226.3" font-family="Helvetica,sans-Serif" font-size="14.00" fill="#d5daf0">amount &#45;&#45; uint256 &#45;&#45; range: [0, 2**256 &#45; 1]</text>
</g>
<!-- 38&#45;&gt;37 -->
<g id="edge20" class="edge">
<title>38&#45;&gt;37</title>
<path fill="none" stroke="#414868" d="M2110.83,-248.04C2093.37,-251.02 2075.14,-253.85 2058,-256 1768.18,-292.43 1416.53,-309.36 1297.04,-314.36"/>
<polygon fill="#414868" stroke="#414868" points="1296.71,-310.87 1286.87,-314.78 1297,-317.86 1296.71,-310.87"/>
<text text-anchor="middle" x="2024" y="-269.8" font-family="Helvetica,sans-Serif" font-size="14.00" fill="#c0caf5">Context(Variable)</text>
</g>
<!-- 39 -->
<g id="node42" class="node">
<title>39</title>
<path fill="#24283b" stroke="#ff9e64" d="M2037,-248C2037,-248 1417,-248 1417,-248 1411,-248 1405,-242 1405,-236 1405,-236 1405,-224 1405,-224 1405,-218 1411,-212 1417,-212 1417,-212 2037,-212 2037,-212 2043,-212 2049,-218 2049,-224 2049,-224 2049,-236 2049,-236 2049,-242 2043,-248 2037,-248"/>
<text text-anchor="middle" x="1727" y="-226.3" font-family="Helvetica,sans-Serif" font-size="14.00" fill="#d5daf0">to &#45;&#45; address &#45;&#45; range: [0x0000000000000000000000000000000000000000, 0xffffffffffffffffffffffffffffffffffffffff]</text>
</g>
<!-- 39&#45;&gt;37 -->
<g id="edge21" class="edge">
<title>39&#45;&gt;37</title>
<path fill="none" stroke="#414868" d="M1632.33,-248.05C1529.91,-266.49 1371.25,-295.06 1296.56,-308.51"/>
<polygon fill="#414868" stroke="#414868" points="1295.82,-305.09 1286.6,-310.31 1297.06,-311.98 1295.82,-305.09"/>
<text text-anchor="middle" x="1572" y="-269.8" font-family="Helvetica,sans-Serif" font-size="14.00" fill="#c0caf5">Context(Variable)</text>
</g>
<!-- 40 -->
<g id="node43" class="node">
<title>40</title>
<path fill="#24283b" stroke="#ff9e64" d="M1375,-248C1375,-248 737,-248 737,-248 731,-248 725,-242 725,-236 725,-236 725,-224 725,-224 725,-218 731,-212 737,-212 737,-212 1375,-212 1375,-212 1381,-212 1387,-218 1387,-224 1387,-224 1387,-236 1387,-236 1387,-242 1381,-248 1375,-248"/>
<text text-anchor="middle" x="1056" y="-226.3" font-family="Helvetica,sans-Serif" font-size="14.00" fill="#d5daf0">token &#45;&#45; ERC20 &#45;&#45; range: [0x0000000000000000000000000000000000000000, 0xffffffffffffffffffffffffffffffffffffffff]</text>
</g>
<!-- 40&#45;&gt;37 -->
<g id="edge22" class="edge">
<title>40&#45;&gt;37</title>
<path fill="none" stroke="#414868" d="M1099.12,-248.07C1130.03,-260.48 1172.84,-278.05 1214.05,-296.37"/>
<polygon fill="#414868" stroke="#414868" points="1212.81,-299.65 1223.37,-300.53 1215.67,-293.26 1212.81,-299.65"/>
<text text-anchor="middle" x="1228" y="-269.8" font-family="Helvetica,sans-Serif" font-size="14.00" fill="#c0caf5">Context(Variable)</text>
</g>
<!-- 22 -->
<g id="node44" class="node">
<title>22</title>
<path fill="#24283b" stroke="#565f89" d="M3029,-683C3029,-683 2913,-683 2913,-683 2907,-683 2901,-677 2901,-671 2901,-671 2901,-659 2901,-659 2901,-653 2907,-647 2913,-647 2913,-647 3029,-647 3029,-647 3035,-647 3041,-653 3041,-659 3041,-659 3041,-671 3041,-671 3041,-677 3035,-683 3029,-683"/>
<text text-anchor="middle" x="2971" y="-661.3" font-family="Helvetica,sans-Serif" font-size="14.00" fill="#d5daf0">SourceUnitPart(0, 2)</text>
</g>
<!-- 22&#45;&gt;12 -->
<g id="edge67" class="edge">
<title>22&#45;&gt;12</title>
<path fill="none" stroke="#414868" d="M2932.75,-683.2C2902.81,-696.67 2861.02,-715.46 2829.03,-729.85"/>
<polygon fill="#414868" stroke="#414868" points="2827.55,-726.68 2819.87,-733.97 2830.42,-733.06 2827.55,-726.68"/>
<text text-anchor="middle" x="2899.5" y="-704.8" font-family="Helvetica,sans-Serif" font-size="14.00" fill="#c0caf5">Part</text>
</g>
<!-- 23 -->
<g id="node45" class="node">
<title>23</title>
<path fill="#24283b" stroke="#9ece6a" d="M3773.5,-596C3773.5,-596 3720.5,-596 3720.5,-596 3714.5,-596 3708.5,-590 3708.5,-584 3708.5,-584 3708.5,-572 3708.5,-572 3708.5,-566 3714.5,-560 3720.5,-560 3720.5,-560 3773.5,-560 3773.5,-560 3779.5,-560 3785.5,-566 3785.5,-572 3785.5,-572 3785.5,-584 3785.5,-584 3785.5,-590 3779.5,-596 3773.5,-596"/>
<text text-anchor="middle" x="3747" y="-574.3" font-family="Helvetica,sans-Serif" font-size="14.00" fill="#d5daf0">contract B</text>
</g>
<!-- 23&#45;&gt;22 -->
<g id="edge69" class="edge">
<title>23&#45;&gt;22</title>
<path fill="none" stroke="#414868" d="M3708.25,-583.24C3587.46,-596.48 3215.99,-637.17 3051.18,-655.22"/>
<polygon fill="#414868" stroke="#414868" points="3050.66,-651.75 3041.1,-656.32 3051.43,-658.71 3050.66,-651.75"/>
<text text-anchor="middle" x="3431" y="-617.8" font-family="Helvetica,sans-Serif" font-size="14.00" fill="#c0caf5">Contract</text>
</g>
<!-- 24 -->
<g id="node46" class="node">
<title>24</title>
<path fill="#24283b" stroke="#73daca" d="M6310,-509C6310,-509 5586,-509 5586,-509 5580,-509 5574,-503 5574,-497 5574,-497 5574,-485 5574,-485 5574,-479 5580,-473 5586,-473 5586,-473 6310,-473 6310,-473 6316,-473 6322,-479 6322,-485 6322,-485 6322,-497 6322,-497 6322,-503 6316,-509 6310,-509"/>
<text text-anchor="middle" x="5948" y="-487.3" font-family="Helvetica,sans-Serif" font-size="14.00" fill="#d5daf0">function flashloan(address, address, uint112, bytes)(addresstoken, addressto, uint112amount, bytes calldata data) internal</text>
</g>
<!-- 24&#45;&gt;23 -->
<g id="edge68" class="edge">
<title>24&#45;&gt;23</title>
<path fill="none" stroke="#414868" d="M5573.7,-506.46C5020.85,-527.81 4026.36,-566.21 3795.7,-575.12"/>
<polygon fill="#414868" stroke="#414868" points="3795.46,-571.63 3785.61,-575.51 3795.73,-578.62 3795.46,-571.63"/>
<text text-anchor="middle" x="4994.5" y="-530.8" font-family="Helvetica,sans-Serif" font-size="14.00" fill="#c0caf5">Func</text>
</g>
<!-- 30 -->
<g id="node47" class="node">
<title>30</title>
<path fill="#24283b" stroke="#565f89" d="M6027,-422C6027,-422 5953,-422 5953,-422 5947,-422 5941,-416 5941,-410 5941,-410 5941,-398 5941,-398 5941,-392 5947,-386 5953,-386 5953,-386 6027,-386 6027,-386 6033,-386 6039,-392 6039,-398 6039,-398 6039,-410 6039,-410 6039,-416 6033,-422 6027,-422"/>
<text text-anchor="middle" x="5990" y="-400.3" font-family="Helvetica,sans-Serif" font-size="14.00" fill="#d5daf0">addresstoken</text>
</g>
<!-- 30&#45;&gt;24 -->
<g id="edge54" class="edge">
<title>30&#45;&gt;24</title>
<path fill="none" stroke="#414868" d="M5989.78,-422.46C5989.04,-432.44 5987.04,-444.94 5982,-455 5980.21,-458.56 5977.94,-462 5975.41,-465.23"/>
<polygon fill="#414868" stroke="#414868" points="5972.72,-462.99 5968.75,-472.81 5977.98,-467.61 5972.72,-462.99"/>
<text text-anchor="middle" x="6033.5" y="-443.8" font-family="Helvetica,sans-Serif" font-size="14.00" fill="#c0caf5">FunctionParam</text>
</g>
<!-- 31 -->
<g id="node48" class="node">
<title>31</title>
<path fill="#24283b" stroke="#565f89" d="M5911,-422C5911,-422 5859,-422 5859,-422 5853,-422 5847,-416 5847,-410 5847,-410 5847,-398 5847,-398 5847,-392 5853,-386 5859,-386 5859,-386 5911,-386 5911,-386 5917,-386 5923,-392 5923,-398 5923,-398 5923,-410 5923,-410 5923,-416 5917,-422 5911,-422"/>
<text text-anchor="middle" x="5885" y="-400.3" font-family="Helvetica,sans-Serif" font-size="14.00" fill="#d5daf0">addressto</text>
</g>
<!-- 31&#45;&gt;24 -->
<g id="edge55" class="edge">
<title>31&#45;&gt;24</title>
<path fill="none" stroke="#414868" d="M5880.84,-422.35C5879.37,-432.53 5879.28,-445.27 5885,-455 5887.63,-459.47 5891.06,-463.41 5894.96,-466.87"/>
<polygon fill="#414868" stroke="#414868" points="5892.88,-469.69 5902.95,-472.96 5897.12,-464.12 5892.88,-469.69"/>
<text text-anchor="middle" x="5931.5" y="-443.8" font-family="Helvetica,sans-Serif" font-size="14.00" fill="#c0caf5">FunctionParam</text>
</g>
<!-- 33 -->
<g id="node49" class="node">
<title>33</title>
<path fill="#24283b" stroke="#565f89" d="M5816.5,-422C5816.5,-422 5733.5,-422 5733.5,-422 5727.5,-422 5721.5,-416 5721.5,-410 5721.5,-410 5721.5,-398 5721.5,-398 5721.5,-392 5727.5,-386 5733.5,-386 5733.5,-386 5816.5,-386 5816.5,-386 5822.5,-386 5828.5,-392 5828.5,-398 5828.5,-398 5828.5,-410 5828.5,-410 5828.5,-416 5822.5,-422 5816.5,-422"/>
<text text-anchor="middle" x="5775" y="-400.3" font-family="Helvetica,sans-Serif" font-size="14.00" fill="#d5daf0">uint112amount</text>
</g>
<!-- 33&#45;&gt;24 -->
<g id="edge56" class="edge">
<title>33&#45;&gt;24</title>
<path fill="none" stroke="#414868" d="M5773.19,-422.43C5773.07,-433.16 5774.88,-446.46 5783,-455 5788.66,-460.95 5799.75,-465.97 5813.62,-470.19"/>
<polygon fill="#414868" stroke="#414868" points="5813.07,-473.66 5823.64,-472.98 5814.95,-466.92 5813.07,-473.66"/>
<text text-anchor="middle" x="5829.5" y="-443.8" font-family="Helvetica,sans-Serif" font-size="14.00" fill="#c0caf5">FunctionParam</text>
</g>
<!-- 34 -->
<g id="node50" class="node">
<title>34</title>
<path fill="#24283b" stroke="#565f89" d="M5691.5,-422C5691.5,-422 5586.5,-422 5586.5,-422 5580.5,-422 5574.5,-416 5574.5,-410 5574.5,-410 5574.5,-398 5574.5,-398 5574.5,-392 5580.5,-386 5586.5,-386 5586.5,-386 5691.5,-386 5691.5,-386 5697.5,-386 5703.5,-392 5703.5,-398 5703.5,-398 5703.5,-410 5703.5,-410 5703.5,-416 5697.5,-422 5691.5,-422"/>
<text text-anchor="middle" x="5639" y="-400.3" font-family="Helvetica,sans-Serif" font-size="14.00" fill="#d5daf0">bytes calldata data</text>
</g>
<!-- 34&#45;&gt;24 -->
<g id="edge57" class="edge">
<title>34&#45;&gt;24</title>
<path fill="none" stroke="#414868" d="M5647.81,-422.28C5654.5,-433.53 5664.81,-447.47 5678,-455 5689.36,-461.48 5708.43,-466.8 5731.34,-471.15"/>
<polygon fill="#414868" stroke="#414868" points="5730.92,-474.63 5741.38,-472.96 5732.16,-467.74 5730.92,-474.63"/>
<text text-anchor="middle" x="5724.5" y="-443.8" font-family="Helvetica,sans-Serif" font-size="14.00" fill="#c0caf5">FunctionParam</text>
</g>
<!-- 41&#45;&gt;24 -->
<g id="edge58" class="edge">
<title>41&#45;&gt;24</title>
<path fill="none" stroke="#414868" d="M8679.41,-422.04C8674.66,-425.28 8669.38,-428.21 8664,-430 8555.6,-466.06 7055.03,-481.91 6332.07,-487.48"/>
<polygon fill="#414868" stroke="#414868" points="6331.98,-483.98 6322.01,-487.56 6332.04,-490.98 6331.98,-483.98"/>
<text text-anchor="middle" x="8636.5" y="-443.8" font-family="Helvetica,sans-Serif" font-size="14.00" fill="#c0caf5">Context(Context)</text>
</g>
<!-- 42 -->
<g id="node52" class="node">
<title>42</title>
<path fill="#24283b" stroke="#ff9e64" d="M12488,-335C12488,-335 12078,-335 12078,-335 12072,-335 12066,-329 12066,-323 12066,-323 12066,-311 12066,-311 12066,-305 12072,-299 12078,-299 12078,-299 12488,-299 12488,-299 12494,-299 12500,-305 12500,-311 12500,-311 12500,-323 12500,-323 12500,-329 12494,-335 12488,-335"/>
<text text-anchor="middle" x="12283" y="-313.3" font-family="Helvetica,sans-Serif" font-size="14.00" fill="#d5daf0">data &#45;&#45; bytes &#45;&#45; range: [{len: 0, indices: {}}, {len: 2**256 &#45; 1, indices: {}}]</text>
</g>
<!-- 42&#45;&gt;41 -->
<g id="edge31" class="edge">
<title>42&#45;&gt;41</title>
<path fill="none" stroke="#414868" d="M12146.62,-335.02C12044.49,-346.9 11901.24,-361.7 11775,-368 11145.74,-399.43 9063.47,-402.65 8741.09,-402.97"/>
<polygon fill="#414868" stroke="#414868" points="8740.79,-399.47 8730.79,-402.98 8740.79,-406.47 8740.79,-399.47"/>
<text text-anchor="middle" x="12023" y="-356.8" font-family="Helvetica,sans-Serif" font-size="14.00" fill="#c0caf5">Context(Variable)</text>
</g>
<!-- 43 -->
<g id="node53" class="node">
<title>43</title>
<path fill="#24283b" stroke="#ff9e64" d="M12036,-335C12036,-335 11796,-335 11796,-335 11790,-335 11784,-329 11784,-323 11784,-323 11784,-311 11784,-311 11784,-305 11790,-299 11796,-299 11796,-299 12036,-299 12036,-299 12042,-299 12048,-305 12048,-311 12048,-311 12048,-323 12048,-323 12048,-329 12042,-335 12036,-335"/>
<text text-anchor="middle" x="11916" y="-313.3" font-family="Helvetica,sans-Serif" font-size="14.00" fill="#d5daf0">amount &#45;&#45; uint112 &#45;&#45; range: [0, 2**112 &#45; 1]</text>
</g>
<!-- 43&#45;&gt;41 -->
<g id="edge32" class="edge">
<title>43&#45;&gt;41</title>
<path fill="none" stroke="#414868" d="M11831.28,-335.03C11812.8,-338.18 11793.3,-341.08 11775,-343 11444.18,-377.68 11359.53,-359.94 11027,-368 10102.66,-390.39 8971.5,-400.71 8741.11,-402.66"/>
<polygon fill="#414868" stroke="#414868" points="8740.8,-399.16 8730.83,-402.74 8740.86,-406.16 8740.8,-399.16"/>
<text text-anchor="middle" x="11718" y="-356.8" font-family="Helvetica,sans-Serif" font-size="14.00" fill="#c0caf5">Context(Variable)</text>
</g>
<!-- 44 -->
<g id="node54" class="node">
<title>44</title>
<path fill="#24283b" stroke="#ff9e64" d="M11754,-335C11754,-335 11134,-335 11134,-335 11128,-335 11122,-329 11122,-323 11122,-323 11122,-311 11122,-311 11122,-305 11128,-299 11134,-299 11134,-299 11754,-299 11754,-299 11760,-299 11766,-305 11766,-311 11766,-311 11766,-323 11766,-323 11766,-329 11760,-335 11754,-335"/>
<text text-anchor="middle" x="11444" y="-313.3" font-family="Helvetica,sans-Serif" font-size="14.00" fill="#d5daf0">to &#45;&#45; address &#45;&#45; range: [0x0000000000000000000000000000000000000000, 0xffffffffffffffffffffffffffffffffffffffff]</text>
</g>
<!-- 44&#45;&gt;41 -->
<g id="edge33" class="edge">
<title>44&#45;&gt;41</title>
<path fill="none" stroke="#414868" d="M11234.4,-335.03C11194.13,-337.96 11152.27,-340.78 11113,-343 10153.04,-397.3 8975.57,-402.46 8740.83,-402.95"/>
<polygon fill="#414868" stroke="#414868" points="8740.67,-399.45 8730.67,-402.97 8740.68,-406.45 8740.67,-399.45"/>
<text text-anchor="middle" x="10970" y="-356.8" font-family="Helvetica,sans-Serif" font-size="14.00" fill="#c0caf5">Context(Variable)</text>
</g>
<!-- 45 -->
<g id="node55" class="node">
<title>45</title>
<path fill="#24283b" stroke="#ff9e64" d="M9381,-335C9381,-335 8739,-335 8739,-335 8733,-335 8727,-329 8727,-323 8727,-323 8727,-311 8727,-311 8727,-305 8733,-299 8739,-299 8739,-299 9381,-299 9381,-299 9387,-299 9393,-305 9393,-311 9393,-311 9393,-323 9393,-323 9393,-329 9387,-335 9381,-335"/>
<text text-anchor="middle" x="9060" y="-313.3" font-family="Helvetica,sans-Serif" font-size="14.00" fill="#d5daf0">token &#45;&#45; address &#45;&#45; range: [0x0000000000000000000000000000000000000000, 0xffffffffffffffffffffffffffffffffffffffff]</text>
</g>
<!-- 45&#45;&gt;41 -->
<g id="edge34" class="edge">
<title>45&#45;&gt;41</title>
<path fill="none" stroke="#414868" d="M8987.38,-335.1C8913.22,-352.56 8800.7,-379.05 8740.48,-393.23"/>
<polygon fill="#414868" stroke="#414868" points="8739.5,-389.87 8730.57,-395.57 8741.11,-396.68 8739.5,-389.87"/>
<text text-anchor="middle" x="8954" y="-356.8" font-family="Helvetica,sans-Serif" font-size="14.00" fill="#c0caf5">Context(Variable)</text>
</g>
<!-- 46 -->
<g id="node56" class="node">
<title>46</title>
<path fill="#24283b" stroke="#ff9e64" d="M10071,-335C10071,-335 9423,-335 9423,-335 9417,-335 9411,-329 9411,-323 9411,-323 9411,-311 9411,-311 9411,-305 9417,-299 9423,-299 9423,-299 10071,-299 10071,-299 10077,-299 10083,-305 10083,-311 10083,-311 10083,-323 10083,-323 10083,-329 10077,-335 10071,-335"/>
<text text-anchor="middle" x="9747" y="-313.3" font-family="Helvetica,sans-Serif" font-size="14.00" fill="#d5daf0">ERC20 &#45;&#45; ERC20 &#45;&#45; range: [0x0000000000000000000000000000000000000000, 0xffffffffffffffffffffffffffffffffffffffff]</text>
</g>
<!-- 46&#45;&gt;41 -->
<g id="edge35" class="edge">
<title>46&#45;&gt;41</title>
<path fill="none" stroke="#414868" d="M9537.13,-335.02C9282.93,-355.64 8872.42,-388.93 8740.94,-399.6"/>
<polygon fill="#414868" stroke="#414868" points="8740.56,-396.12 8730.88,-400.41 8741.13,-403.09 8740.56,-396.12"/>
<text text-anchor="middle" x="9338" y="-356.8" font-family="Helvetica,sans-Serif" font-size="14.00" fill="#c0caf5">Context(Variable)</text>
</g>
<!-- 47 -->
<g id="node57" class="node">
<title>47</title>
<path fill="#24283b" stroke="#ff9e64" d="M9381,-248C9381,-248 8739,-248 8739,-248 8733,-248 8727,-242 8727,-236 8727,-236 8727,-224 8727,-224 8727,-218 8733,-212 8739,-212 8739,-212 9381,-212 9381,-212 9387,-212 9393,-218 9393,-224 9393,-224 9393,-236 9393,-236 9393,-242 9387,-248 9381,-248"/>
<text text-anchor="middle" x="9060" y="-226.3" font-family="Helvetica,sans-Serif" font-size="14.00" fill="#d5daf0">token &#45;&#45; address &#45;&#45; range: [0x0000000000000000000000000000000000000000, 0xffffffffffffffffffffffffffffffffffffffff]</text>
</g>
<!-- 47&#45;&gt;45 -->
<g id="edge36" class="edge">
<title>47&#45;&gt;45</title>
<path fill="none" stroke="#414868" d="M9060,-248.2C9060,-259.84 9060,-275.45 9060,-288.76"/>
<polygon fill="#414868" stroke="#414868" points="9056.5,-288.82 9060,-298.82 9063.5,-288.82 9056.5,-288.82"/>
<text text-anchor="middle" x="9102" y="-269.8" font-family="Helvetica,sans-Serif" font-size="14.00" fill="#c0caf5">Context(Prev)</text>
</g>
<!-- 48 -->
<g id="node58" class="node">
<title>48</title>
<path fill="#24283b" stroke="#ff9e64" d="M11091.5,-335C11091.5,-335 10512.5,-335 10512.5,-335 10506.5,-335 10500.5,-329 10500.5,-323 10500.5,-323 10500.5,-311 10500.5,-311 10500.5,-305 10506.5,-299 10512.5,-299 10512.5,-299 11091.5,-299 11091.5,-299 11097.5,-299 11103.5,-305 11103.5,-311 11103.5,-311 11103.5,-323 11103.5,-323 11103.5,-329 11097.5,-335 11091.5,-335"/>
<text text-anchor="middle" x="10802" y="-313.3" font-family="Helvetica,sans-Serif" font-size="14.00" fill="#d5daf0">B &#45;&#45; B &#45;&#45; range: [0x0000000000000000000000000000000000000000, 0xffffffffffffffffffffffffffffffffffffffff]</text>
</g>
<!-- 48&#45;&gt;41 -->
<g id="edge37" class="edge">
<title>48&#45;&gt;41</title>
<path fill="none" stroke="#414868" d="M10599.86,-335C10563.95,-337.82 10526.88,-340.61 10492,-343 10296.15,-356.45 10247.15,-359.9 10051,-368 9535.06,-389.3 8907.8,-399.83 8741.25,-402.38"/>
<polygon fill="#414868" stroke="#414868" points="8740.9,-398.88 8730.95,-402.54 8741,-405.88 8740.9,-398.88"/>
<text text-anchor="middle" x="10392" y="-356.8" font-family="Helvetica,sans-Serif" font-size="14.00" fill="#c0caf5">Context(Variable)</text>
</g>
<!-- 50 -->
<g id="node59" class="node">
<title>50</title>
<path fill="#24283b" stroke="#ff9e64" d="M10470.5,-335C10470.5,-335 10113.5,-335 10113.5,-335 10107.5,-335 10101.5,-329 10101.5,-323 10101.5,-323 10101.5,-311 10101.5,-311 10101.5,-305 10107.5,-299 10113.5,-299 10113.5,-299 10470.5,-299 10470.5,-299 10476.5,-299 10482.5,-305 10482.5,-311 10482.5,-311 10482.5,-323 10482.5,-323 10482.5,-329 10476.5,-335 10470.5,-335"/>
<text text-anchor="middle" x="10292" y="-313.3" font-family="Helvetica,sans-Serif" font-size="14.00" fill="#d5daf0">balanceOf(address) &#45;&#45; function balanceOf(address) &#45;&#45; range: </text>
</g>
<!-- 50&#45;&gt;41 -->
<g id="edge38" class="edge">
<title>50&#45;&gt;41</title>
<path fill="none" stroke="#414868" d="M10168.67,-335.01C10143.35,-338.05 10116.84,-340.92 10092,-343 9559.77,-387.65 8910.2,-399.91 8740.92,-402.44"/>
<polygon fill="#414868" stroke="#414868" points="8740.64,-398.94 8730.7,-402.59 8740.75,-405.94 8740.64,-398.94"/>
<text text-anchor="middle" x="9994" y="-356.8" font-family="Helvetica,sans-Serif" font-size="14.00" fill="#c0caf5">Context(Variable)</text>
</g>
<!-- 53 -->
<g id="node60" class="node">
<title>53</title>
<path fill="#24283b" stroke="#ff9e64" d="M7676.5,-335C7676.5,-335 7081.5,-335 7081.5,-335 7075.5,-335 7069.5,-329 7069.5,-323 7069.5,-323 7069.5,-311 7069.5,-311 7069.5,-305 7075.5,-299 7081.5,-299 7081.5,-299 7676.5,-299 7676.5,-299 7682.5,-299 7688.5,-305 7688.5,-311 7688.5,-311 7688.5,-323 7688.5,-323 7688.5,-329 7682.5,-335 7676.5,-335"/>
<text text-anchor="middle" x="7379" y="-313.3" font-family="Helvetica,sans-Serif" font-size="14.00" fill="#d5daf0">balanceOf &#45;&#45; mapping (address =&gt; uint256) &#45;&#45; range: [{len: 0, indices: {}}, {len: 2**256 &#45; 1, indices: {}}]</text>
</g>
<!-- 53&#45;&gt;41 -->
<g id="edge40" class="edge">
<title>53&#45;&gt;41</title>
<path fill="none" stroke="#414868" d="M7588.3,-335C7624.86,-337.8 7662.53,-340.58 7698,-343 7888.55,-356.02 7936.21,-359.24 8127,-368 8243.13,-373.33 8532.31,-358.13 8657.37,-384.63"/>
<polygon fill="#414868" stroke="#414868" points="8656.63,-388.05 8667.16,-386.88 8658.19,-381.23 8656.63,-388.05"/>
<text text-anchor="middle" x="8180" y="-356.8" font-family="Helvetica,sans-Serif" font-size="14.00" fill="#c0caf5">Context(Variable)</text>
</g>
<!-- 55 -->
<g id="node61" class="node">
<title>55</title>
<path fill="#24283b" stroke="#ff9e64" d="M7676.5,-248C7676.5,-248 7081.5,-248 7081.5,-248 7075.5,-248 7069.5,-242 7069.5,-236 7069.5,-236 7069.5,-224 7069.5,-224 7069.5,-218 7075.5,-212 7081.5,-212 7081.5,-212 7676.5,-212 7676.5,-212 7682.5,-212 7688.5,-218 7688.5,-224 7688.5,-224 7688.5,-236 7688.5,-236 7688.5,-242 7682.5,-248 7676.5,-248"/>
<text text-anchor="middle" x="7379" y="-226.3" font-family="Helvetica,sans-Serif" font-size="14.00" fill="#d5daf0">balanceOf &#45;&#45; mapping (address =&gt; uint256) &#45;&#45; range: [{len: 0, indices: {}}, {len: 2**256 &#45; 1, indices: {}}]</text>
</g>
<!-- 55&#45;&gt;53 -->
<g id="edge41" class="edge">
<title>55&#45;&gt;53</title>
<path fill="none" stroke="#414868" d="M7379,-248.2C7379,-259.84 7379,-275.45 7379,-288.76"/>
<polygon fill="#414868" stroke="#414868" points="7375.5,-288.82 7379,-298.82 7382.5,-288.82 7375.5,-288.82"/>
<text text-anchor="middle" x="7421" y="-269.8" font-family="Helvetica,sans-Serif" font-size="14.00" fill="#c0caf5">Context(Prev)</text>
</g>
<!-- 58 -->
<g id="node62" class="node">
<title>58</title>
<path fill="#24283b" stroke="#ff9e64" d="M10071,-248C10071,-248 9423,-248 9423,-248 9417,-248 9411,-242 9411,-236 9411,-236 9411,-224 9411,-224 9411,-218 9417,-212 9423,-212 9423,-212 10071,-212 10071,-212 10077,-212 10083,-218 10083,-224 10083,-224 10083,-236 10083,-236 10083,-242 10077,-248 10071,-248"/>
<text text-anchor="middle" x="9747" y="-226.3" font-family="Helvetica,sans-Serif" font-size="14.00" fill="#d5daf0">ERC20 &#45;&#45; ERC20 &#45;&#45; range: [0x0000000000000000000000000000000000000000, 0xffffffffffffffffffffffffffffffffffffffff]</text>
</g>
<!-- 58&#45;&gt;46 -->
<g id="edge42" class="edge">
<title>58&#45;&gt;46</title>
<path fill="none" stroke="#414868" d="M9747,-248.2C9747,-259.84 9747,-275.45 9747,-288.76"/>
<polygon fill="#414868" stroke="#414868" points="9743.5,-288.82 9747,-298.82 9750.5,-288.82 9743.5,-288.82"/>
<text text-anchor="middle" x="9789" y="-269.8" font-family="Helvetica,sans-Serif" font-size="14.00" fill="#c0caf5">Context(Prev)</text>
</g>
<!-- 59 -->
<g id="node63" class="node">
<title>59</title>
<path fill="#24283b" stroke="#ff9e64" d="M9381,-155C9381,-155 8739,-155 8739,-155 8733,-155 8727,-149 8727,-143 8727,-143 8727,-131 8727,-131 8727,-125 8733,-119 8739,-119 8739,-119 9381,-119 9381,-119 9387,-119 9393,-125 9393,-131 9393,-131 9393,-143 9393,-143 9393,-149 9387,-155 9381,-155"/>
<text text-anchor="middle" x="9060" y="-133.3" font-family="Helvetica,sans-Serif" font-size="14.00" fill="#d5daf0">token &#45;&#45; address &#45;&#45; range: [0x0000000000000000000000000000000000000000, 0xffffffffffffffffffffffffffffffffffffffff]</text>
</g>
<!-- 59&#45;&gt;47 -->
<g id="edge43" class="edge">
<title>59&#45;&gt;47</title>
<path fill="none" stroke="#414868" d="M9060,-155.12C9060,-168.21 9060,-186.52 9060,-201.64"/>
<polygon fill="#414868" stroke="#414868" points="9056.5,-201.96 9060,-211.96 9063.5,-201.96 9056.5,-201.96"/>
<text text-anchor="middle" x="9102" y="-176.8" font-family="Helvetica,sans-Serif" font-size="14.00" fill="#c0caf5">Context(Prev)</text>
</g>
<!-- 60 -->
<g id="node64" class="node">
<title>60</title>
<path fill="#24283b" stroke="#ff9e64" d="M8696.5,-335C8696.5,-335 8117.5,-335 8117.5,-335 8111.5,-335 8105.5,-329 8105.5,-323 8105.5,-323 8105.5,-311 8105.5,-311 8105.5,-305 8111.5,-299 8117.5,-299 8117.5,-299 8696.5,-299 8696.5,-299 8702.5,-299 8708.5,-305 8708.5,-311 8708.5,-311 8708.5,-323 8708.5,-323 8708.5,-329 8702.5,-335 8696.5,-335"/>
<text text-anchor="middle" x="8407" y="-313.3" font-family="Helvetica,sans-Serif" font-size="14.00" fill="#d5daf0">B &#45;&#45; B &#45;&#45; range: [0x0000000000000000000000000000000000000000, 0xffffffffffffffffffffffffffffffffffffffff]</text>
</g>
<!-- 60&#45;&gt;41 -->
<g id="edge44" class="edge">
<title>60&#45;&gt;41</title>
<path fill="none" stroke="#414868" d="M8487.25,-335.02C8535.87,-346.29 8599.05,-362.68 8657.7,-383.77"/>
<polygon fill="#414868" stroke="#414868" points="8656.86,-387.19 8667.45,-387.34 8659.26,-380.62 8656.86,-387.19"/>
<text text-anchor="middle" x="8661" y="-356.8" font-family="Helvetica,sans-Serif" font-size="14.00" fill="#c0caf5">Context(Variable)</text>
</g>
<!-- 62 -->
<g id="node65" class="node">
<title>62</title>
<path fill="#24283b" stroke="#ff9e64" d="M8075.5,-335C8075.5,-335 7718.5,-335 7718.5,-335 7712.5,-335 7706.5,-329 7706.5,-323 7706.5,-323 7706.5,-311 7706.5,-311 7706.5,-305 7712.5,-299 7718.5,-299 7718.5,-299 8075.5,-299 8075.5,-299 8081.5,-299 8087.5,-305 8087.5,-311 8087.5,-311 8087.5,-323 8087.5,-323 8087.5,-329 8081.5,-335 8075.5,-335"/>
<text text-anchor="middle" x="7897" y="-313.3" font-family="Helvetica,sans-Serif" font-size="14.00" fill="#d5daf0">balanceOf(address) &#45;&#45; function balanceOf(address) &#45;&#45; range: </text>
</g>
<!-- 62&#45;&gt;41 -->
<g id="edge45" class="edge">
<title>62&#45;&gt;41</title>
<path fill="none" stroke="#414868" d="M8025.73,-335.03C8049.41,-337.89 8073.93,-340.69 8097,-343 8111.67,-344.47 8579.85,-377.08 8656.94,-385.52"/>
<polygon fill="#414868" stroke="#414868" points="8656.76,-389.03 8667.14,-386.93 8657.72,-382.1 8656.76,-389.03"/>
<text text-anchor="middle" x="8483" y="-356.8" font-family="Helvetica,sans-Serif" font-size="14.00" fill="#c0caf5">Context(Variable)</text>
</g>
<!-- 65 -->
<g id="node66" class="node">
<title>65</title>
<path fill="#24283b" stroke="#ff9e64" d="M7676.5,-155C7676.5,-155 7081.5,-155 7081.5,-155 7075.5,-155 7069.5,-149 7069.5,-143 7069.5,-143 7069.5,-131 7069.5,-131 7069.5,-125 7075.5,-119 7081.5,-119 7081.5,-119 7676.5,-119 7676.5,-119 7682.5,-119 7688.5,-125 7688.5,-131 7688.5,-131 7688.5,-143 7688.5,-143 7688.5,-149 7682.5,-155 7676.5,-155"/>
<text text-anchor="middle" x="7379" y="-133.3" font-family="Helvetica,sans-Serif" font-size="14.00" fill="#d5daf0">balanceOf &#45;&#45; mapping (address =&gt; uint256) &#45;&#45; range: [{len: 0, indices: {}}, {len: 2**256 &#45; 1, indices: {}}]</text>
</g>
<!-- 65&#45;&gt;55 -->
<g id="edge47" class="edge">
<title>65&#45;&gt;55</title>
<path fill="none" stroke="#414868" d="M7379,-155.12C7379,-168.21 7379,-186.52 7379,-201.64"/>
<polygon fill="#414868" stroke="#414868" points="7375.5,-201.96 7379,-211.96 7382.5,-201.96 7375.5,-201.96"/>
<text text-anchor="middle" x="7421" y="-176.8" font-family="Helvetica,sans-Serif" font-size="14.00" fill="#c0caf5">Context(Prev)</text>
</g>
<!-- 67 -->
<g id="node67" class="node">
<title>67</title>
<path fill="#24283b" stroke="#ff9e64" d="M7676.5,-68C7676.5,-68 7081.5,-68 7081.5,-68 7075.5,-68 7069.5,-62 7069.5,-56 7069.5,-56 7069.5,-44 7069.5,-44 7069.5,-38 7075.5,-32 7081.5,-32 7081.5,-32 7676.5,-32 7676.5,-32 7682.5,-32 7688.5,-38 7688.5,-44 7688.5,-44 7688.5,-56 7688.5,-56 7688.5,-62 7682.5,-68 7676.5,-68"/>
<text text-anchor="middle" x="7379" y="-46.3" font-family="Helvetica,sans-Serif" font-size="14.00" fill="#d5daf0">balanceOf &#45;&#45; mapping (address =&gt; uint256) &#45;&#45; range: [{len: 0, indices: {}}, {len: 2**256 &#45; 1, indices: {}}]</text>
</g>
<!-- 67&#45;&gt;65 -->
<g id="edge48" class="edge">
<title>67&#45;&gt;65</title>
<path fill="none" stroke="#414868" d="M7379,-68.2C7379,-79.84 7379,-95.45 7379,-108.76"/>
<polygon fill="#414868" stroke="#414868" points="7375.5,-108.82 7379,-118.82 7382.5,-108.82 7375.5,-108.82"/>
<text text-anchor="middle" x="7421" y="-89.8" font-family="Helvetica,sans-Serif" font-size="14.00" fill="#c0caf5">Context(Prev)</text>
</g>
<!-- 70 -->
<g id="node68" class="node">
<title>70</title>
<path fill="#24283b" stroke="#bb9af7" d="M12380.5,-248C12380.5,-248 12341.5,-248 12341.5,-248 12335.5,-248 12329.5,-242 12329.5,-236 12329.5,-236 12329.5,-224 12329.5,-224 12329.5,-218 12335.5,-212 12341.5,-212 12341.5,-212 12380.5,-212 12380.5,-212 12386.5,-212 12392.5,-218 12392.5,-224 12392.5,-224 12392.5,-236 12392.5,-236 12392.5,-242 12386.5,-248 12380.5,-248"/>
<text text-anchor="middle" x="12361" y="-226.3" font-family="Helvetica,sans-Serif" font-size="14.00" fill="#d5daf0">Context</text>
</g>
<!-- 72 -->
<g id="node74" class="node">
<title>72</title>
<path fill="#24283b" stroke="#565f89" d="M12600,-335C12600,-335 12530,-335 12530,-335 12524,-335 12518,-329 12518,-323 12518,-323 12518,-311 12518,-311 12518,-305 12524,-299 12530,-299 12530,-299 12600,-299 12600,-299 12606,-299 12612,-305 12612,-311 12612,-311 12612,-323 12612,-323 12612,-329 12606,-335 12600,-335"/>
<text text-anchor="middle" x="12565" y="-313.3" font-family="Helvetica,sans-Serif" font-size="14.00" fill="#d5daf0">Context Fork</text>
</g>
<!-- 70&#45;&gt;72 -->
<g id="edge49" class="edge">
<title>70&#45;&gt;72</title>
<path fill="none" stroke="#414868" d="M12392.88,-244.28C12425.42,-257.84 12476.41,-279.09 12514.46,-294.94"/>
<polygon fill="#414868" stroke="#414868" points="12513.26,-298.23 12523.84,-298.85 12515.96,-291.77 12513.26,-298.23"/>
<text text-anchor="middle" x="12537" y="-269.8" font-family="Helvetica,sans-Serif" font-size="14.00" fill="#c0caf5">Context(Subcontext)</text>
</g>
<!-- 74 -->
<g id="node69" class="node">
<title>74</title>
<path fill="#24283b" stroke="#ff9e64" d="M12592,-155C12592,-155 12130,-155 12130,-155 12124,-155 12118,-149 12118,-143 12118,-143 12118,-131 12118,-131 12118,-125 12124,-119 12130,-119 12130,-119 12592,-119 12592,-119 12598,-119 12604,-125 12604,-131 12604,-131 12604,-143 12604,-143 12604,-149 12598,-155 12592,-155"/>
<text text-anchor="middle" x="12361" y="-133.3" font-family="Helvetica,sans-Serif" font-size="14.00" fill="#d5daf0">preTokenBalance &#45;&#45; uint256 &#45;&#45; range: [uint256(balanceOf), uint256(balanceOf)]</text>
</g>
<!-- 74&#45;&gt;70 -->
<g id="edge27" class="edge">
<title>74&#45;&gt;70</title>
<path fill="none" stroke="#414868" d="M12361,-155.12C12361,-168.21 12361,-186.52 12361,-201.64"/>
<polygon fill="#414868" stroke="#414868" points="12357.5,-201.96 12361,-211.96 12364.5,-201.96 12357.5,-201.96"/>
<text text-anchor="middle" x="12414" y="-176.8" font-family="Helvetica,sans-Serif" font-size="14.00" fill="#c0caf5">Context(Variable)</text>
</g>
<!-- 76 -->
<g id="node70" class="node">
<title>76</title>
<path fill="#24283b" stroke="#ff9e64" d="M12088,-155C12088,-155 11620,-155 11620,-155 11614,-155 11608,-149 11608,-143 11608,-143 11608,-131 11608,-131 11608,-125 11614,-119 11620,-119 11620,-119 12088,-119 12088,-119 12094,-119 12100,-125 12100,-131 12100,-131 12100,-143 12100,-143 12100,-149 12094,-155 12088,-155"/>
<text text-anchor="middle" x="11854" y="-133.3" font-family="Helvetica,sans-Serif" font-size="14.00" fill="#d5daf0">postTokenBalance &#45;&#45; uint256 &#45;&#45; range: [uint256(balanceOf), uint256(balanceOf)]</text>
</g>
<!-- 76&#45;&gt;70 -->
<g id="edge28" class="edge">
<title>76&#45;&gt;70</title>
<path fill="none" stroke="#414868" d="M11948.77,-155.01C12059.72,-174.92 12238.56,-207.02 12319.19,-221.5"/>
<polygon fill="#414868" stroke="#414868" points="12318.98,-225.01 12329.45,-223.34 12320.22,-218.12 12318.98,-225.01"/>
<text text-anchor="middle" x="12175" y="-176.8" font-family="Helvetica,sans-Serif" font-size="14.00" fill="#c0caf5">Context(Variable)</text>
</g>
<!-- 77 -->
<g id="node71" class="node">
<title>77</title>
<path fill="#24283b" stroke="#ff9e64" d="M12592,-68C12592,-68 12130,-68 12130,-68 12124,-68 12118,-62 12118,-56 12118,-56 12118,-44 12118,-44 12118,-38 12124,-32 12130,-32 12130,-32 12592,-32 12592,-32 12598,-32 12604,-38 12604,-44 12604,-44 12604,-56 12604,-56 12604,-62 12598,-68 12592,-68"/>
<text text-anchor="middle" x="12361" y="-46.3" font-family="Helvetica,sans-Serif" font-size="14.00" fill="#d5daf0">preTokenBalance &#45;&#45; uint256 &#45;&#45; range: [uint256(balanceOf), uint256(balanceOf)]</text>
</g>
<!-- 77&#45;&gt;74 -->
<g id="edge29" class="edge">
<title>77&#45;&gt;74</title>
<path fill="none" stroke="#414868" d="M12361,-68.2C12361,-79.84 12361,-95.45 12361,-108.76"/>
<polygon fill="#414868" stroke="#414868" points="12357.5,-108.82 12361,-118.82 12364.5,-108.82 12357.5,-108.82"/>
<text text-anchor="middle" x="12403" y="-89.8" font-family="Helvetica,sans-Serif" font-size="14.00" fill="#c0caf5">Context(Prev)</text>
</g>
<!-- 78 -->
<g id="node72" class="node">
<title>78</title>
<path fill="#24283b" stroke="#ff9e64" d="M12088,-68C12088,-68 11620,-68 11620,-68 11614,-68 11608,-62 11608,-56 11608,-56 11608,-44 11608,-44 11608,-38 11614,-32 11620,-32 11620,-32 12088,-32 12088,-32 12094,-32 12100,-38 12100,-44 12100,-44 12100,-56 12100,-56 12100,-62 12094,-68 12088,-68"/>
<text text-anchor="middle" x="11854" y="-46.3" font-family="Helvetica,sans-Serif" font-size="14.00" fill="#d5daf0">postTokenBalance &#45;&#45; uint256 &#45;&#45; range: [uint256(balanceOf), uint256(balanceOf)]</text>
</g>
<!-- 78&#45;&gt;76 -->
<g id="edge30" class="edge">
<title>78&#45;&gt;76</title>
<path fill="none" stroke="#414868" d="M11854,-68.2C11854,-79.84 11854,-95.45 11854,-108.76"/>
<polygon fill="#414868" stroke="#414868" points="11850.5,-108.82 11854,-118.82 11857.5,-108.82 11850.5,-108.82"/>
<text text-anchor="middle" x="11896" y="-89.8" font-family="Helvetica,sans-Serif" font-size="14.00" fill="#c0caf5">Context(Prev)</text>
</g>
<!-- 71 -->
<g id="node73" class="node">
<title>71</title>
<path fill="#24283b" stroke="#bb9af7" d="M11571.5,-248C11571.5,-248 11532.5,-248 11532.5,-248 11526.5,-248 11520.5,-242 11520.5,-236 11520.5,-236 11520.5,-224 11520.5,-224 11520.5,-218 11526.5,-212 11532.5,-212 11532.5,-212 11571.5,-212 11571.5,-212 11577.5,-212 11583.5,-218 11583.5,-224 11583.5,-224 11583.5,-236 11583.5,-236 11583.5,-242 11577.5,-248 11571.5,-248"/>
<text text-anchor="middle" x="11552" y="-226.3" font-family="Helvetica,sans-Serif" font-size="14.00" fill="#d5daf0">Context</text>
</g>
<!-- 71&#45;&gt;72 -->
<g id="edge50" class="edge">
<title>71&#45;&gt;72</title>
<path fill="none" stroke="#414868" d="M11577.63,-248.2C11583.44,-251.34 11589.76,-254.19 11596,-256 11788.05,-311.62 12292.74,-265.93 12507.82,-299.15"/>
<polygon fill="#414868" stroke="#414868" points="12507.41,-302.62 12517.84,-300.79 12508.54,-295.72 12507.41,-302.62"/>
<text text-anchor="middle" x="11826" y="-269.8" font-family="Helvetica,sans-Serif" font-size="14.00" fill="#c0caf5">Context(Subcontext)</text>
</g>
<!-- 72&#45;&gt;41 -->
<g id="edge51" class="edge">
<title>72&#45;&gt;41</title>
<path fill="none" stroke="#414868" d="M12531.94,-335.11C12524.56,-338.26 12516.65,-341.13 12509,-343 12323.44,-388.22 12270.88,-361.45 12080,-368 11384.84,-391.84 9079.33,-401.54 8740.68,-402.84"/>
<polygon fill="#414868" stroke="#414868" points="8740.56,-399.34 8730.57,-402.88 8740.58,-406.34 8740.56,-399.34"/>
<text text-anchor="middle" x="12522" y="-356.8" font-family="Helvetica,sans-Serif" font-size="14.00" fill="#c0caf5">Context(ContextFork)</text>
</g>
<!-- 73 -->
<g id="node75" class="node">
<title>73</title>
<path fill="#24283b" stroke="#ff9e64" d="M7039,-335C7039,-335 6577,-335 6577,-335 6571,-335 6565,-329 6565,-323 6565,-323 6565,-311 6565,-311 6565,-305 6571,-299 6577,-299 6577,-299 7039,-299 7039,-299 7045,-299 7051,-305 7051,-311 7051,-311 7051,-323 7051,-323 7051,-329 7045,-335 7039,-335"/>
<text text-anchor="middle" x="6808" y="-313.3" font-family="Helvetica,sans-Serif" font-size="14.00" fill="#d5daf0">preTokenBalance &#45;&#45; uint256 &#45;&#45; range: [uint256(balanceOf), uint256(balanceOf)]</text>
</g>
<!-- 73&#45;&gt;41 -->
<g id="edge52" class="edge">
<title>73&#45;&gt;41</title>
<path fill="none" stroke="#414868" d="M6964.77,-335.02C6996.58,-338.04 7029.84,-340.89 7061,-343 7364.07,-363.5 7440.36,-359.47 7744,-368 7843.31,-370.79 8524.39,-362.6 8657,-384.83"/>
<polygon fill="#414868" stroke="#414868" points="8656.67,-388.34 8667.16,-386.86 8658.04,-381.47 8656.67,-388.34"/>
<text text-anchor="middle" x="7797" y="-356.8" font-family="Helvetica,sans-Serif" font-size="14.00" fill="#c0caf5">Context(Variable)</text>
</g>
<!-- 75 -->
<g id="node76" class="node">
<title>75</title>
<path fill="#24283b" stroke="#ff9e64" d="M6535,-335C6535,-335 6067,-335 6067,-335 6061,-335 6055,-329 6055,-323 6055,-323 6055,-311 6055,-311 6055,-305 6061,-299 6067,-299 6067,-299 6535,-299 6535,-299 6541,-299 6547,-305 6547,-311 6547,-311 6547,-323 6547,-323 6547,-329 6541,-335 6535,-335"/>
<text text-anchor="middle" x="6301" y="-313.3" font-family="Helvetica,sans-Serif" font-size="14.00" fill="#d5daf0">postTokenBalance &#45;&#45; uint256 &#45;&#45; range: [uint256(balanceOf), uint256(balanceOf)]</text>
</g>
<!-- 75&#45;&gt;41 -->
<g id="edge53" class="edge">
<title>75&#45;&gt;41</title>
<path fill="none" stroke="#414868" d="M6461.06,-335.02C6492.51,-337.99 6525.27,-340.82 6556,-343 6807.17,-360.85 6870.3,-360.97 7122,-368 7205.3,-370.33 8506.5,-366.53 8657.23,-385.22"/>
<polygon fill="#414868" stroke="#414868" points="8656.73,-388.68 8667.17,-386.85 8657.87,-381.77 8656.73,-388.68"/>
<text text-anchor="middle" x="7175" y="-356.8" font-family="Helvetica,sans-Serif" font-size="14.00" fill="#c0caf5">Context(Variable)</text>
</g>
<!-- 32 -->
<g id="node77" class="node">
<title>32</title>
<path fill="#24283b" stroke="#565f89" d="M12981.5,-68C12981.5,-68 12944.5,-68 12944.5,-68 12938.5,-68 12932.5,-62 12932.5,-56 12932.5,-56 12932.5,-44 12932.5,-44 12932.5,-38 12938.5,-32 12944.5,-32 12944.5,-32 12981.5,-32 12981.5,-32 12987.5,-32 12993.5,-38 12993.5,-44 12993.5,-44 12993.5,-56 12993.5,-56 12993.5,-62 12987.5,-68 12981.5,-68"/>
<text text-anchor="middle" x="12963" y="-46.3" font-family="Helvetica,sans-Serif" font-size="14.00" fill="#d5daf0">uint112</text>
</g>
<!-- 49 -->
<g id="node78" class="node">
<title>49</title>
<path fill="#24283b" stroke="#ff9e64" d="M13642,-68C13642,-68 13024,-68 13024,-68 13018,-68 13012,-62 13012,-56 13012,-56 13012,-44 13012,-44 13012,-38 13018,-32 13024,-32 13024,-32 13642,-32 13642,-32 13648,-32 13654,-38 13654,-44 13654,-44 13654,-56 13654,-56 13654,-62 13648,-68 13642,-68"/>
<text text-anchor="middle" x="13333" y="-46.3" font-family="Helvetica,sans-Serif" font-size="14.00" fill="#d5daf0">B &#45;&#45; address &#45;&#45; range: [0x0000000000000000000000000000000000000000, 0xffffffffffffffffffffffffffffffffffffffff]</text>
</g>
<!-- 61 -->
<g id="node79" class="node">
<title>61</title>
<path fill="#24283b" stroke="#ff9e64" d="M14302,-68C14302,-68 13684,-68 13684,-68 13678,-68 13672,-62 13672,-56 13672,-56 13672,-44 13672,-44 13672,-38 13678,-32 13684,-32 13684,-32 14302,-32 14302,-32 14308,-32 14314,-38 14314,-44 14314,-44 14314,-56 14314,-56 14314,-62 14308,-68 14302,-68"/>
<text text-anchor="middle" x="13993" y="-46.3" font-family="Helvetica,sans-Serif" font-size="14.00" fill="#d5daf0">B &#45;&#45; address &#45;&#45; range: [0x0000000000000000000000000000000000000000, 0xffffffffffffffffffffffffffffffffffffffff]</text>
</g>
</g>
</svg>
